<svg version="1.1" xmlns="http://www.w3.org/2000/svg" style="display: block;" viewBox="0 0 2048 2048" width="1000" height="1000">
<path transform="translate(0,0)" fill="rgb(255,255,255)" d="M 0 0 L 2048 0 L 2048 2048 L 0 2048 L 0 0 z"/>
<path transform="translate(0,0)" fill="rgb(30,29,30)" d="M 1020.79 765.507 C 1048.43 777.959 1075.99 790.617 1103.45 803.48 C 1154.06 826.18 1204.46 849.334 1254.66 872.938 C 1253.24 956.551 1254.42 1040.37 1254.62 1124 L 1303.7 1124.04 L 1303.75 1147.85 L 726.109 1148 L 726.195 1124.06 L 831.207 1123.88 C 826.929 1111.37 825.532 1101.11 831.665 1088.78 C 832.134 1087.84 832.64 1086.91 833.173 1086 C 823.56 1080.52 816.49 1073.87 813.449 1062.78 C 810.85 1053.23 812.152 1043.05 817.067 1034.47 C 819.107 1030.96 821.862 1028.18 824.963 1025.61 C 801.782 962.069 782.006 896.967 760.441 832.828 C 740.208 832.871 719.895 832.477 699.673 832.979 C 699.731 825.082 699.886 817.169 699.706 809.273 C 725.53 809.448 751.403 809.958 777.224 809.684 L 796.315 867.187 C 805.727 867.454 815.174 867.904 824.59 867.823 C 830.491 867.891 836.553 867.672 842.43 868.086 L 1027.24 867.288 L 1080.78 867.293 C 1089.38 867.303 1098.53 866.691 1107.06 867.438 C 1109.2 867.625 1111.26 868.205 1112.82 869.754 C 1113.6 870.531 1114.29 872.067 1114.78 872.995 C 1112.06 888.053 1103.84 904.367 1098.45 918.733 C 1087.47 947.964 1076.92 977.378 1065.61 1006.48 C 1028.94 1012.94 992.156 1019.73 955.237 1024.59 C 930.192 1029.37 904.676 1032.46 879.441 1036.15 C 867.644 1037.87 853.653 1038.57 842.506 1042.71 C 840.361 1043.5 838.527 1045.14 837.26 1047.03 C 835.493 1049.66 834.674 1052.94 835.583 1056.05 C 836.467 1059.07 838.366 1061.29 841.272 1062.6 C 847.794 1065.52 1044.43 1063.67 1070.91 1064.23 C 1071.23 1069.93 1073.61 1081.13 1069.76 1085.69 C 1068.15 1087.6 1063.96 1087.42 1061.56 1087.6 C 1066.98 1100.75 1068.12 1109.27 1062.65 1122.83 L 1080.03 1122.91 C 1082.13 1114.33 1083.69 1105.15 1081.41 1096.48 C 1087.93 1083.61 1088.84 1073.91 1084.94 1059.94 C 1085.63 1058.76 1085.85 1058.55 1086.21 1057.02 C 1087.65 1051 1086.95 1007.29 1084.22 1002.78 C 1085.43 994.564 1090.41 984.998 1093.4 977.227 L 1112.53 926.787 C 1117.48 914.073 1129.98 888.034 1130.97 875.572 C 1131.48 869.114 1127.93 862.159 1123.59 857.574 C 1121.22 855.065 1118.5 853.121 1115.11 852.278 C 1098.51 848.153 1064.19 851.701 1045.29 850.757 L 1044.5 850.842 L 1020.96 851.043 L 1020.79 765.507 z"/>
<path transform="translate(0,0)" fill="rgb(255,255,255)" d="M 842.43 868.086 L 1027.24 867.288 L 1080.78 867.293 C 1089.38 867.303 1098.53 866.691 1107.06 867.438 C 1109.2 867.625 1111.26 868.205 1112.82 869.754 C 1113.6 870.531 1114.29 872.067 1114.78 872.995 C 1112.06 888.053 1103.84 904.367 1098.45 918.733 C 1087.47 947.964 1076.92 977.378 1065.61 1006.48 C 1028.94 1012.94 992.156 1019.73 955.237 1024.59 C 953.962 1023.59 954.41 1023.87 953.227 1023.17 C 944.133 1017.81 935.689 1012.18 927.368 1005.67 C 901.362 1012.62 872.668 1014.74 846.001 1018.36 C 842.869 1004.02 836.928 989.554 832.318 975.574 C 823.039 947.033 813.461 918.589 803.586 890.248 C 812.83 888.969 823.019 889.826 832.37 889.867 C 854.141 889.964 876.14 890.617 897.875 889.264 C 890.134 887.189 881.676 885.265 874.522 881.619 C 870.523 879.532 866.035 878.4 861.95 876.378 C 857.791 874.319 853.673 871.09 849.423 869.464 C 847.237 868.628 844.739 868.36 842.43 868.086 z"/>
<path transform="translate(0,0)" fill="rgb(109,109,108)" d="M 842.43 868.086 L 1027.24 867.288 L 1080.78 867.293 C 1089.38 867.303 1098.53 866.691 1107.06 867.438 C 1109.2 867.625 1111.26 868.205 1112.82 869.754 C 1113.6 870.531 1114.29 872.067 1114.78 872.995 C 1112.06 888.053 1103.84 904.367 1098.45 918.733 C 1087.47 947.964 1076.92 977.378 1065.61 1006.48 C 1028.94 1012.94 992.156 1019.73 955.237 1024.59 C 953.962 1023.59 954.41 1023.87 953.227 1023.17 C 944.133 1017.81 935.689 1012.18 927.368 1005.67 C 968.137 1000.76 1008.7 992.388 1049.29 986.026 C 1052.58 973.245 1057.94 960.606 1062.6 948.276 L 1084.25 890.844 L 897.24 890.949 L 840.296 891.132 C 828.172 891.16 815.633 891.666 803.586 890.248 C 812.83 888.969 823.019 889.826 832.37 889.867 C 854.141 889.964 876.14 890.617 897.875 889.264 C 890.134 887.189 881.676 885.265 874.522 881.619 C 870.523 879.532 866.035 878.4 861.95 876.378 C 857.791 874.319 853.673 871.09 849.423 869.464 C 847.237 868.628 844.739 868.36 842.43 868.086 z"/>
<path transform="translate(0,0)" fill="rgb(109,109,108)" d="M 929.135 906.816 L 995.08 907.009 C 995.016 930.988 995.656 955.277 994.424 979.212 C 972.538 982.03 950.853 986.137 929.041 989.44 C 905.293 993.377 881.397 996.539 857.738 1000.98 C 849.367 969.282 837.163 938.068 827.06 906.834 C 861.084 907.03 895.11 907.024 929.135 906.816 z"/>
<path transform="translate(0,0)" fill="rgb(135,135,134)" d="M 929.135 906.816 L 995.08 907.009 C 995.016 930.988 995.656 955.277 994.424 979.212 C 972.538 982.03 950.853 986.137 929.041 989.44 L 929.135 906.816 z"/>
<path transform="translate(0,0)" fill="rgb(135,135,134)" d="M 1020.95 906.93 C 1034.27 907.101 1047.6 907.184 1060.93 907.179 C 1055.08 922.802 1049.11 938.375 1043 953.896 C 1040.65 959.758 1038.45 965.698 1036.19 971.596 C 1031.07 972.099 1025.96 972.847 1020.85 973.489 L 1020.95 906.93 z"/>
<path transform="translate(0,0)" fill="rgb(176,175,175)" d="M 1142.82 848.177 C 1160.55 856.354 1179.76 863.875 1196.86 873.203 L 1230.09 888.397 C 1230.61 966.804 1229.26 1045.28 1230.39 1123.67 C 1220.79 1124.86 1210.14 1123.98 1200.42 1123.93 C 1183.48 1123.78 1166.53 1123.82 1149.58 1124.05 C 1149.35 1090.75 1147.9 1056.84 1149.87 1023.6 C 1147.67 1023.21 1145.85 1022.76 1143.8 1021.87 C 1141.04 1011.02 1143.07 979.421 1143.1 965.759 L 1142.82 848.177 z"/>
<path transform="translate(0,0)" fill="rgb(211,210,210)" d="M 1196.86 873.203 L 1230.09 888.397 C 1230.61 966.804 1229.26 1045.28 1230.39 1123.67 C 1219.61 1122.04 1208.07 1122.79 1197.17 1122.81 C 1196.5 1039.61 1196.4 956.404 1196.86 873.203 z"/>
<path transform="translate(0,0)" fill="rgb(135,135,134)" d="M 1085.02 850.554 C 1084.96 844.279 1083.06 826.559 1086.74 822.224 L 1142.82 848.177 L 1143.1 965.759 C 1143.07 979.421 1141.04 1011.02 1143.8 1021.87 C 1145.85 1022.76 1147.67 1023.21 1149.87 1023.6 C 1141.62 1023.7 1133.36 1023.66 1125.11 1023.49 L 1124.94 1123.9 C 1104.29 1123.73 1083.59 1124.26 1062.96 1123.9 L 1062.65 1122.83 L 1080.03 1122.91 C 1082.13 1114.33 1083.69 1105.15 1081.41 1096.48 C 1087.93 1083.61 1088.84 1073.91 1084.94 1059.94 C 1085.63 1058.76 1085.85 1058.55 1086.21 1057.02 C 1087.65 1051 1086.95 1007.29 1084.22 1002.78 C 1085.43 994.564 1090.41 984.998 1093.4 977.227 L 1112.53 926.787 C 1117.48 914.073 1129.98 888.034 1130.97 875.572 C 1131.48 869.114 1127.93 862.159 1123.59 857.574 C 1121.22 855.065 1118.5 853.121 1115.11 852.278 C 1098.51 848.153 1064.19 851.701 1045.29 850.757 C 1056.4 848.552 1073.4 850.139 1085.02 850.554 z"/>
<path transform="translate(0,0)" fill="rgb(109,109,108)" d="M 1045.91 803.707 C 1059.19 810.57 1073.24 815.797 1086.74 822.224 C 1083.06 826.559 1084.96 844.279 1085.02 850.554 C 1073.4 850.139 1056.4 848.552 1045.29 850.757 L 1044.5 850.842 C 1047.33 841.434 1045.78 814.983 1045.91 803.707 z"/>
<path transform="translate(0,0)" fill="rgb(77,76,76)" d="M 824.59 867.823 C 830.491 867.891 836.553 867.672 842.43 868.086 C 844.739 868.36 847.237 868.628 849.423 869.464 C 853.673 871.09 857.791 874.319 861.95 876.378 C 866.035 878.4 870.523 879.532 874.522 881.619 C 871.63 882.114 868.768 882.509 865.834 882.152 C 857.44 881.131 829.69 874.359 824.59 867.823 z"/>
<path transform="translate(0,0)" fill="rgb(255,255,255)" d="M 898.16 1087.66 C 930.479 1086.98 962.809 1086.98 995.128 1087.65 C 994.783 1088.47 994.443 1089.29 994.11 1090.11 C 989.103 1102.45 989.397 1111.65 994.495 1123.78 C 981.428 1125.11 967.698 1123.83 954.52 1123.8 C 939.183 1123.77 923.43 1124.67 908.148 1124 L 898.479 1123.86 C 904.013 1109.99 903.926 1101.4 898.16 1087.66 z"/>
<path transform="translate(0,0)" fill="rgb(109,109,108)" d="M 919.082 1103.89 C 937.31 1104.38 955.597 1104.07 973.833 1104.05 C 974.032 1110.53 975.399 1116.84 976.59 1123.19 C 982.586 1123.23 988.512 1123.36 994.495 1123.78 C 981.428 1125.11 967.698 1123.83 954.52 1123.8 C 939.183 1123.77 923.43 1124.67 908.148 1124 C 910.642 1123.69 912.386 1123.45 914.672 1122.31 C 918.432 1116.89 918.35 1110.27 919.082 1103.89 z"/>
<path transform="translate(0,0)" fill="rgb(255,255,255)" d="M 1024.5 1090.84 C 1032.84 1088.62 1041.4 1093.6 1043.61 1101.95 C 1045.81 1110.29 1040.81 1118.84 1032.46 1121.03 C 1024.13 1123.2 1015.62 1118.23 1013.42 1109.91 C 1011.23 1101.58 1016.18 1093.06 1024.5 1090.84 z"/>
<path transform="translate(0,0)" fill="rgb(255,255,255)" d="M 861.772 1090.93 C 869.769 1089.03 877.822 1093.86 879.896 1101.82 C 881.971 1109.77 877.305 1117.93 869.396 1120.17 C 864.129 1121.66 858.466 1120.19 854.593 1116.32 C 850.72 1112.45 849.243 1106.79 850.733 1101.52 C 852.223 1096.25 856.446 1092.2 861.772 1090.93 z"/>
<path transform="translate(0,0)" fill="rgb(109,109,108)" d="M 932.014 714.122 C 936.489 711.817 990.624 691.405 992.7 691.458 C 993.348 691.475 993.939 691.838 994.558 692.027 C 996.435 694.077 998.141 695.365 1000.62 696.659 C 1021.64 707.625 1044.44 716.485 1066.07 726.3 C 1113.59 747.877 1160.96 769.791 1208.18 792.04 C 1207.94 802.225 1207.82 812.413 1207.82 822.602 C 1172.17 806.845 1136.61 790.874 1101.15 774.688 C 1066.13 758.482 1031.4 741.694 995.774 726.822 C 995.839 743.622 997.703 844.735 995.307 851.044 L 970.627 850.976 L 934.831 851.028 L 835.379 851.248 L 810.665 851.442 C 811.118 820.692 811.094 789.936 810.595 759.186 L 932.014 714.122 z"/>
<path transform="translate(0,0)" fill="rgb(109,109,108)" d="M 932.014 714.122 C 935.928 720.1 933.552 732.31 934.251 739.429 C 935.791 761.052 934.875 783.075 934.743 804.755 C 934.648 820.125 935.34 835.695 934.831 851.028 L 835.379 851.248 L 810.665 851.442 C 811.118 820.692 811.094 789.936 810.595 759.186 L 932.014 714.122 z"/>
<path transform="translate(0,0)" fill="rgb(77,76,76)" d="M 932.014 714.122 C 935.928 720.1 933.552 732.31 934.251 739.429 C 901.928 752.643 868.75 764.263 836.089 776.658 C 835.972 801.425 836.698 826.54 835.379 851.248 L 810.665 851.442 C 811.118 820.692 811.094 789.936 810.595 759.186 L 932.014 714.122 z"/>
<path transform="translate(0,0)" fill="rgb(211,210,210)" d="M 994.558 692.027 C 996.435 694.077 998.141 695.365 1000.62 696.659 C 1021.64 707.625 1044.44 716.485 1066.07 726.3 C 1113.59 747.877 1160.96 769.791 1208.18 792.04 C 1207.94 802.225 1207.82 812.413 1207.82 822.602 C 1172.17 806.845 1136.61 790.874 1101.15 774.688 C 1066.13 758.482 1031.4 741.694 995.774 726.822 C 995.839 743.622 997.703 844.735 995.307 851.044 C 993.679 838.073 994.853 823.595 994.873 810.473 L 995.012 736.947 C 995.042 722.046 995.694 706.88 994.558 692.027 z"/>
<path transform="translate(0,0)" fill="rgb(135,135,134)" d="M 934.251 739.429 C 946.221 735.018 958.282 730.767 970.161 726.124 C 971.952 767.63 970.015 809.395 970.627 850.976 L 934.831 851.028 C 935.34 835.695 934.648 820.125 934.743 804.755 C 934.875 783.075 935.791 761.052 934.251 739.429 z"/>
<path transform="translate(0,0)" fill="rgb(30,29,30)" d="M 812.103 1213.89 L 835.095 1213.95 L 835.369 1320.9 L 816.752 1320.83 L 816.795 1269.5 L 816.871 1244.2 C 807.575 1265.51 797.502 1286.69 787.211 1307.55 L 773.762 1307.76 C 763.241 1286.54 753.401 1264.8 743.759 1243.16 L 744.139 1320.65 L 725.627 1320.36 L 725.209 1213.92 L 748.49 1214.01 C 759.408 1236.71 770.083 1259.53 780.514 1282.45 C 790.848 1259.51 801.378 1236.66 812.103 1213.89 z"/>
<path transform="translate(0,0)" fill="rgb(30,29,30)" d="M 406.08 1214 L 428.991 1214.06 L 460.686 1282.48 C 469.116 1259.25 480.628 1236.75 490.842 1214.22 L 514.57 1214.21 C 515.621 1249.67 514.537 1285.39 514.839 1320.89 L 496.131 1320.77 L 496.002 1268.49 L 495.926 1243.53 C 487.401 1265.15 476.82 1286.39 467.167 1307.55 L 453.795 1307.79 C 443.799 1286.46 434.008 1265.03 424.423 1243.5 C 424.789 1269.26 424.893 1295.03 424.733 1320.79 L 406.156 1320.49 L 406.08 1214 z"/>
<path transform="translate(0,0)" fill="rgb(135,135,134)" d="M 1248.86 1214.01 C 1267.41 1214.12 1298.49 1210.29 1314.82 1219.53 C 1322.89 1224.09 1328.32 1231.53 1330.4 1240.54 C 1332.77 1250.78 1331.56 1262.23 1325.82 1271.18 C 1319.49 1281.06 1310.75 1284.63 1299.81 1286.98 C 1288.81 1287.31 1277.78 1287.18 1266.78 1287.22 L 1266.68 1320.3 L 1248.69 1320.29 L 1248.86 1214.01 z"/>
<path transform="translate(0,0)" fill="rgb(255,255,255)" d="M 1266.69 1230.69 C 1277.85 1231.18 1295.34 1227.89 1304.91 1234.12 C 1309.29 1236.97 1311.91 1241.86 1312.87 1246.91 C 1314.21 1253.93 1312.16 1259.74 1308.31 1265.52 C 1296.96 1273.61 1280.29 1271.24 1266.86 1271.32 L 1266.69 1230.69 z"/>
<path transform="translate(0,0)" fill="rgb(30,29,30)" d="M 1128.06 1240.35 C 1138.58 1240.25 1148.7 1242.74 1156.6 1250.03 C 1167.9 1260.46 1170.1 1274.53 1170.68 1289.06 L 1107.95 1289.1 C 1109.38 1291.99 1110.8 1294.91 1112.84 1297.42 C 1117.14 1302.71 1123.55 1306.41 1130.39 1306.91 C 1139.9 1307.62 1147.26 1303.51 1154.32 1297.63 C 1157.47 1301.35 1160.81 1304.92 1164.08 1308.54 C 1157.6 1314.96 1149.71 1319.67 1140.75 1321.65 C 1129.5 1324.24 1117.68 1322.1 1108.05 1315.73 C 1098.59 1309.39 1092.2 1299.38 1090.44 1288.12 C 1088.72 1276.88 1091.46 1264.26 1098.49 1255.22 C 1106.03 1245.51 1116.29 1241.75 1128.06 1240.35 z"/>
<path transform="translate(0,0)" fill="rgb(255,255,255)" d="M 1124.16 1256.2 C 1129.92 1255.75 1135.7 1255.37 1140.97 1258.18 C 1147.71 1261.77 1150.06 1268.42 1152.15 1275.26 L 1139.25 1275.64 L 1107.33 1275.77 C 1111.5 1266.46 1114.62 1260.84 1124.16 1256.2 z"/>
<path transform="translate(0,0)" fill="rgb(30,29,30)" d="M 881.388 1241.18 C 883.495 1241.07 885.603 1240.97 887.712 1240.9 C 898.249 1240.53 908.696 1241.77 916.571 1249.54 C 930.617 1263.39 925.929 1301.33 925.752 1320.63 C 920.754 1320.72 912.875 1321.76 908.359 1320.03 C 908.249 1317.85 908.216 1315.93 907.544 1313.85 C 901.15 1314.97 896.448 1320.45 890.118 1322.12 C 881.22 1324.45 871.466 1321.03 863.893 1316.42 C 862.356 1314.98 860.881 1313.51 859.652 1311.79 C 855.93 1306.59 854.259 1300.69 855.364 1294.33 C 861.202 1260.72 896.377 1280.38 907.182 1272.32 C 907.612 1270.32 907.12 1268.92 906.169 1267.13 C 903.766 1262.6 900.005 1258.64 894.965 1257.29 C 885.498 1254.74 874.955 1258.23 866.659 1262.71 L 861.879 1247.19 C 868.265 1244.39 874.567 1242.53 881.388 1241.18 z"/>
<path transform="translate(0,0)" fill="rgb(255,255,255)" d="M 884.784 1285.31 C 889.756 1285.19 894.721 1285.1 899.69 1285.38 C 903.811 1285.61 905.34 1286.01 908.099 1289.09 C 908.389 1290.77 908.493 1291.91 908.023 1293.58 C 906.033 1300.67 900.771 1304.88 894.493 1307.8 C 889.919 1308.77 884.913 1309.47 880.559 1307.3 C 877.316 1305.69 874.315 1302.8 873.381 1299.2 C 872.808 1297 873.084 1294.76 874.147 1292.75 C 876.384 1288.53 880.457 1286.7 884.784 1285.31 z"/>
<path transform="translate(0,0)" fill="rgb(135,135,134)" d="M 1587.59 1241.18 C 1588.9 1241.05 1590.2 1240.97 1591.51 1240.9 C 1602.92 1240.23 1613.33 1242.11 1621.98 1250.18 C 1633 1260.48 1634.6 1273.94 1634.9 1288.13 C 1614.4 1288.26 1593.82 1287.58 1573.34 1288.56 L 1574.05 1289.9 C 1578.17 1297.66 1583.32 1304.01 1592.2 1306.43 C 1599.81 1308.5 1607.71 1306.24 1614.43 1302.6 L 1618.05 1299.65 C 1622.84 1300.61 1625.17 1305.1 1627.99 1308.83 C 1623.23 1313.48 1618.02 1317.06 1611.73 1319.35 C 1601.15 1323.19 1588.99 1322.76 1578.85 1317.8 C 1569.18 1313.1 1561.83 1304.68 1558.48 1294.47 C 1554.94 1283.69 1555.86 1271.06 1561.2 1261.02 C 1567.05 1249.99 1576.12 1244.78 1587.59 1241.18 z"/>
<path transform="translate(0,0)" fill="rgb(255,255,255)" d="M 1590.86 1255.32 C 1596.05 1255.13 1601.05 1254.97 1605.81 1257.36 C 1612.95 1260.93 1615.52 1267.98 1618.07 1274.98 L 1602.25 1275.23 L 1572.69 1275.33 C 1573.28 1273.87 1573.9 1272.42 1574.55 1270.99 C 1578.36 1262.53 1582.21 1258.66 1590.86 1255.32 z"/>
<path transform="translate(0,0)" fill="rgb(135,135,134)" d="M 1411.4 1241.24 C 1415.27 1241.06 1419.17 1240.85 1423.05 1240.87 C 1431.74 1240.93 1440.83 1243.77 1446.91 1250.19 C 1459.9 1263.9 1455.24 1301.92 1455.09 1320.23 C 1450.5 1320.26 1442.62 1321.38 1438.57 1319.42 C 1438.37 1317.14 1438.14 1315.06 1437.58 1312.83 C 1429.97 1314.47 1424.61 1320.98 1416.54 1322.32 C 1408.5 1323.65 1399.96 1319.89 1393.51 1315.41 C 1389.27 1311 1386.56 1306.16 1385.88 1300.01 C 1385.16 1293.53 1386.83 1287.16 1391.15 1282.19 C 1403.31 1268.22 1417.48 1276.06 1432.38 1274.38 C 1434.92 1274.1 1435.45 1274.24 1437.02 1272.17 C 1437.1 1269.28 1436.24 1267.01 1434.83 1264.53 C 1432.3 1260.07 1429.64 1258 1424.66 1256.75 C 1415.18 1254.37 1405 1257.75 1396.92 1262.61 L 1391.54 1247.3 C 1398.02 1244.28 1404.39 1242.5 1411.4 1241.24 z"/>
<path transform="translate(0,0)" fill="rgb(255,255,255)" d="M 1414.02 1285.24 C 1421.82 1284.96 1429.36 1285.42 1437.11 1286.26 C 1437.13 1289.95 1437.34 1294.12 1436.21 1297.68 C 1434.3 1303.64 1429.32 1305.62 1424.05 1308.04 C 1419.85 1309.09 1415 1309.47 1410.94 1307.7 C 1407.6 1306.24 1403.86 1303.27 1402.87 1299.59 C 1402.08 1296.67 1402.33 1294.48 1403.77 1291.83 C 1405.82 1288.03 1410.22 1286.55 1414.02 1285.24 z"/>
<path transform="translate(0,0)" fill="rgb(30,29,30)" d="M 1009.71 1210.68 L 1028.18 1210.76 C 1028.47 1232.4 1028.56 1254.04 1028.46 1275.69 C 1038.95 1264.6 1049.75 1253.67 1059.46 1241.88 C 1067.1 1242.03 1074.76 1241.95 1082.4 1241.98 C 1072.74 1251.97 1063.27 1262.12 1053.54 1272.04 C 1061.36 1281.98 1067.89 1292.86 1074.65 1303.53 C 1078.49 1309.16 1082.08 1315 1085.77 1320.74 L 1063.85 1320.64 C 1056.26 1309.27 1048.81 1297.8 1041.52 1286.23 C 1037.51 1291.06 1033.03 1295.44 1028.62 1299.89 C 1028.81 1306.85 1028.62 1313.83 1028.52 1320.79 L 1009.46 1320.58 C 1009.24 1283.94 1009.32 1247.31 1009.71 1210.68 z"/>
<path transform="translate(0,0)" fill="rgb(30,29,30)" d="M 620.372 1241.18 C 622.416 1241 624.464 1240.89 626.514 1240.83 C 634.991 1240.66 643.433 1242.5 649.533 1248.81 C 662.434 1262.14 658.017 1302.26 657.983 1320.49 L 639.109 1320.47 C 639.123 1306.32 641.081 1286.38 638.681 1272.88 C 637.766 1267.73 635.645 1262.76 631.146 1259.78 C 625.864 1256.29 619.555 1257.34 613.774 1258.68 C 611.717 1260.11 609.647 1261.68 607.914 1263.5 C 599.286 1272.56 602.886 1308.19 603.051 1320.61 L 584.124 1320.26 L 584.018 1242.05 C 588.624 1241.97 596.589 1240.61 600.469 1242.81 C 602.339 1245.23 602.333 1247.2 602.52 1250.12 L 602.585 1251.3 L 603.477 1251.72 C 608.338 1246.63 612.422 1243.97 619.035 1241.64 L 620.372 1241.18 z"/>
<path transform="translate(0,0)" fill="rgb(135,135,134)" d="M 1507.95 1240.24 C 1510.59 1240.07 1513.23 1239.97 1515.89 1240.11 C 1529.16 1240.83 1537.36 1246.22 1546.01 1255.79 C 1541.96 1259.64 1537.58 1263.17 1533.33 1266.79 C 1528.46 1261.19 1523.45 1256.84 1515.79 1255.9 C 1509.8 1255.17 1504.08 1257.37 1499.61 1261.32 C 1493.99 1266.28 1490.71 1273.89 1490.56 1281.35 C 1490.42 1288.3 1492.79 1295.29 1497.88 1300.15 C 1502.36 1304.44 1509.19 1307.16 1515.41 1306.97 C 1522.6 1306.74 1527.76 1302.72 1532.56 1297.77 L 1533.62 1296.45 C 1538.15 1297.87 1542.8 1302.02 1546.71 1304.75 C 1541.14 1312.08 1533.8 1317.91 1524.92 1320.66 C 1514.77 1323.75 1503.81 1322.64 1494.49 1317.57 C 1484.31 1311.96 1476.9 1302.38 1474.03 1291.12 C 1471.22 1280.09 1472.99 1267.27 1479.27 1257.71 C 1485.98 1247.51 1496.41 1242.73 1507.95 1240.24 z"/>
<path transform="translate(0,0)" fill="rgb(109,109,108)" d="M 1084.22 1002.78 C 1086.95 1007.29 1087.65 1051 1086.21 1057.02 C 1085.85 1058.55 1085.63 1058.76 1084.94 1059.94 C 1081.68 1054.69 1077.39 1051.5 1072.37 1048.09 C 1021.11 1045.5 969.307 1049.34 917.978 1047.7 C 955.688 1040.36 994.021 1035.45 1031.94 1029.2 C 1043.42 1027.31 1063.24 1025.99 1073.34 1021.13 C 1080.19 1017.84 1082.04 1009.38 1084.22 1002.78 z"/>
<path transform="translate(0,0)" fill="rgb(30,29,30)" d="M 1191.11 1221.15 L 1209.31 1221.13 L 1209.33 1242.14 L 1227.83 1242.2 L 1227.91 1257.01 L 1209.7 1257.11 C 1209.69 1268.01 1206.58 1292.65 1211.06 1301.74 C 1214.61 1308.94 1220.85 1302.75 1226.57 1304.66 C 1228.63 1307.98 1228.3 1310.74 1228.5 1314.54 C 1228.91 1316.01 1228.52 1316.39 1228.05 1317.79 C 1224.22 1320.67 1219.77 1321.71 1215 1321.82 C 1208.35 1321.97 1200.66 1320.24 1195.83 1315.35 C 1187.71 1307.15 1190.91 1269.35 1191 1256.78 C 1187.88 1256.94 1184.83 1257.12 1181.72 1256.86 C 1180.58 1255.22 1179.81 1253.82 1179.39 1251.86 C 1178.89 1249.51 1178.91 1247.01 1180.53 1245.05 C 1182.53 1242.63 1186.23 1242.35 1189.14 1242.04 L 1190.1 1241.95 C 1192.6 1237.35 1191.16 1226.44 1191.11 1221.15 z"/>
<path transform="translate(0,0)" fill="rgb(135,135,134)" d="M 1349.7 1209.92 L 1367.67 1209.97 L 1367.89 1320.31 L 1349.37 1320.27 C 1351.15 1283.75 1349.63 1246.54 1349.7 1209.92 z"/>
<path transform="translate(0,0)" fill="rgb(30,29,30)" d="M 985.042 1241.2 C 988.414 1241.14 990.359 1240.52 993.178 1242.47 C 994.044 1244.38 994.395 1245.64 994.257 1247.7 C 994.007 1251.44 993.973 1255.15 993.921 1258.9 C 991.25 1259.01 988.541 1259.11 985.908 1259.6 C 977.088 1261.24 972.732 1266.32 968.002 1273.45 C 966.874 1289.08 967.539 1304.92 967.832 1320.57 L 949.164 1320.54 L 948.943 1242.07 L 967.764 1242.3 L 967.905 1255.05 C 972.944 1248.02 976.828 1244.29 985.042 1241.2 z"/>
<path transform="translate(0,0)" fill="rgb(30,29,30)" d="M 681.12 1242.13 L 700.015 1242.15 C 700.371 1268.22 700.509 1294.51 699.939 1320.56 L 681.187 1320.45 L 681.12 1242.13 z"/>
<path transform="translate(0,0)" fill="rgb(30,29,30)" d="M 540.362 1242.13 L 559.021 1242.22 C 558.964 1259.1 559.026 1275.99 559.206 1292.87 C 559.24 1301.91 559.854 1311.66 558.57 1320.6 L 540.434 1320.69 C 540.961 1294.55 540.391 1268.29 540.362 1242.13 z"/>
<path transform="translate(0,0)" fill="rgb(30,29,30)" d="M 685.491 1209.79 C 691.185 1207.04 698.032 1209.44 700.76 1215.15 C 703.488 1220.85 701.055 1227.69 695.336 1230.39 C 689.655 1233.07 682.873 1230.66 680.164 1224.99 C 677.454 1219.32 679.835 1212.53 685.491 1209.79 z"/>
<path transform="translate(0,0)" fill="rgb(30,29,30)" d="M 546.226 1209.54 C 551.951 1207.68 558.128 1210.62 560.299 1216.23 C 562.471 1221.84 559.881 1228.17 554.399 1230.66 C 550.57 1232.39 546.097 1231.86 542.775 1229.29 C 539.453 1226.71 537.827 1222.51 538.551 1218.37 C 539.274 1214.23 542.228 1210.83 546.226 1209.54 z"/>
</svg>