<?xml version="1.0" encoding="UTF-8"?>
<svg id="Livello_1" xmlns="http://www.w3.org/2000/svg" version="1.1" viewBox="0 0 1000 1000">
  <!-- Generator: Adobe Illustrator 29.7.0, SVG Export Plug-In . SVG Version: 2.1.1 Build 138)  -->
  <defs>
    <style>
      .st0 {
        fill: #b0afaf;
      }

      .st1 {
        fill: #fff;
      }

      .st2 {
        fill: #6d6d6c;
      }

      .st3 {
        fill: #4d4c4c;
      }

      .st4 {
        fill: #878786;
      }

      .st5 {
        fill: #1e1d1e;
      }

      .st6 {
        fill: #d3d2d2;
      }
    </style>
  </defs>
  <path class="st5" d="M498.4,373.8c13.5,6.1,27,12.3,40.4,18.5,24.7,11.1,49.3,22.4,73.8,33.9-.7,40.8-.1,81.8,0,122.6h24s0,11.6,0,11.6h-282.1c0,0,0-11.6,0-11.6h51.3c-2.1-6.2-2.8-11.2.2-17.2.2-.5.5-.9.7-1.4-4.7-2.7-8.1-5.9-9.6-11.3-1.3-4.7-.6-9.6,1.8-13.8,1-1.7,2.3-3.1,3.9-4.3-11.3-31-21-62.8-31.5-94.1-9.9,0-19.8-.2-29.7,0,0-3.9.1-7.7,0-11.6,12.6,0,25.2.3,37.9.2l9.3,28.1c4.6.1,9.2.4,13.8.3,2.9,0,5.8,0,8.7.1l90.2-.4h26.1c4.2,0,8.7-.3,12.8,0,1,0,2.1.4,2.8,1.1.4.4.7,1.1,1,1.6-1.3,7.4-5.3,15.3-8,22.3-5.4,14.3-10.5,28.6-16,42.8-17.9,3.2-35.9,6.5-53.9,8.8-12.2,2.3-24.7,3.8-37,5.6-5.8.8-12.6,1.2-18,3.2-1,.4-1.9,1.2-2.6,2.1-.9,1.3-1.3,2.9-.8,4.4.4,1.5,1.4,2.6,2.8,3.2,3.2,1.4,99.2.5,112.1.8.2,2.8,1.3,8.3-.6,10.5-.8.9-2.8.8-4,.9,2.6,6.4,3.2,10.6.5,17.2h8.5c1-4.2,1.8-8.6.7-12.9,3.2-6.3,3.6-11,1.7-17.8.3-.6.4-.7.6-1.4.7-2.9.4-24.3-1-26.5.6-4,3-8.7,4.5-12.5l9.3-24.6c2.4-6.2,8.5-18.9,9-25,.2-3.2-1.5-6.5-3.6-8.8-1.2-1.2-2.5-2.2-4.1-2.6-8.1-2-24.9-.3-34.1-.7h-.4s-11.5.1-11.5.1v-41.8Z"/>
  <path class="st1" d="M411.3,423.9l90.2-.4h26.1c4.2,0,8.7-.3,12.8,0,1,0,2.1.4,2.8,1.1.4.4.7,1.1,1,1.6-1.3,7.4-5.3,15.3-8,22.3-5.4,14.3-10.5,28.6-16,42.8-17.9,3.2-35.9,6.5-53.9,8.8-.6-.5-.4-.4-1-.7-4.4-2.6-8.6-5.4-12.6-8.5-12.7,3.4-26.7,4.4-39.7,6.2-1.5-7-4.4-14.1-6.7-20.9-4.5-13.9-9.2-27.8-14-41.7,4.5-.6,9.5-.2,14.1-.2,10.6,0,21.4.4,32-.3-3.8-1-7.9-2-11.4-3.7-2-1-4.1-1.6-6.1-2.6-2-1-4-2.6-6.1-3.4-1.1-.4-2.3-.5-3.4-.7Z"/>
  <path class="st2" d="M411.3,423.9l90.2-.4h26.1c4.2,0,8.7-.3,12.8,0,1,0,2.1.4,2.8,1.1.4.4.7,1.1,1,1.6-1.3,7.4-5.3,15.3-8,22.3-5.4,14.3-10.5,28.6-16,42.8-17.9,3.2-35.9,6.5-53.9,8.8-.6-.5-.4-.4-1-.7-4.4-2.6-8.6-5.4-12.6-8.5,19.9-2.4,39.7-6.5,59.5-9.6,1.6-6.2,4.2-12.4,6.5-18.4l10.6-28h-91.3c0,0-27.8.1-27.8.1-5.9,0-12,.3-17.9-.4,4.5-.6,9.5-.2,14.1-.2,10.6,0,21.4.4,32-.3-3.8-1-7.9-2-11.4-3.7-2-1-4.1-1.6-6.1-2.6-2-1-4-2.6-6.1-3.4-1.1-.4-2.3-.5-3.4-.7Z"/>
  <path class="st2" d="M453.7,442.8h32.2c0,11.8.3,23.7-.3,35.3-10.7,1.4-21.3,3.4-31.9,5-11.6,1.9-23.3,3.5-34.8,5.6-4.1-15.5-10-30.7-15-46,16.6,0,33.2,0,49.8,0Z"/>
  <path class="st4" d="M453.7,442.8h32.2c0,11.8.3,23.7-.3,35.3-10.7,1.4-21.3,3.4-31.9,5v-40.3Z"/>
  <path class="st4" d="M498.5,442.8c6.5,0,13,.1,19.5.1-2.9,7.6-5.8,15.2-8.8,22.8-1.1,2.9-2.2,5.8-3.3,8.6-2.5.2-5,.6-7.5.9v-32.5Z"/>
  <path class="st0" d="M558,414.1c8.7,4,18,7.7,26.4,12.2l16.2,7.4c.3,38.3-.4,76.6.1,114.9-4.7.6-9.9.2-14.6.1-8.3,0-16.5,0-24.8,0-.1-16.3-.8-32.8.1-49-1.1-.2-2-.4-3-.8-1.3-5.3-.4-20.7-.3-27.4v-57.4Z"/>
  <path class="st6" d="M584.4,426.4l16.2,7.4c.3,38.3-.4,76.6.1,114.9-5.3-.8-10.9-.4-16.2-.4-.3-40.6-.4-81.3-.2-121.9Z"/>
  <path class="st4" d="M529.8,415.3c0-3.1-1-11.7.8-13.8l27.4,12.7v57.4c.1,6.7-.9,22.1.5,27.4,1,.4,1.9.7,3,.8-4,0-8.1,0-12.1,0v49c-10.2,0-20.3.2-30.3,0l-.2-.5h8.5c1-4.2,1.8-8.6.7-12.9,3.2-6.3,3.6-11,1.7-17.8.3-.6.4-.7.6-1.4.7-2.9.4-24.3-1-26.5.6-4,3-8.7,4.5-12.5l9.3-24.6c2.4-6.2,8.5-18.9,9-25,.2-3.2-1.5-6.5-3.6-8.8-1.2-1.2-2.5-2.2-4.1-2.6-8.1-2-24.9-.3-34.1-.7,5.4-1.1,13.7-.3,19.4,0Z"/>
  <path class="st2" d="M510.7,392.4c6.5,3.4,13.3,5.9,19.9,9-1.8,2.1-.9,10.8-.8,13.8-5.7-.2-14-1-19.4,0h-.4c1.4-4.6.6-17.5.7-23Z"/>
  <path class="st3" d="M402.6,423.7c2.9,0,5.8,0,8.7.1,1.1.1,2.3.3,3.4.7,2.1.8,4.1,2.4,6.1,3.4,2,1,4.2,1.5,6.1,2.6-1.4.2-2.8.4-4.2.3-4.1-.5-17.6-3.8-20.1-7Z"/>
  <path class="st1" d="M438.6,531.1c15.8-.3,31.6-.3,47.3,0-.2.4-.3.8-.5,1.2-2.4,6-2.3,10.5.2,16.4-6.4.6-13.1,0-19.5,0-7.5,0-15.2.4-22.6,0h-4.7c2.7-6.8,2.7-11-.2-17.7Z"/>
  <path class="st2" d="M448.8,539c8.9.2,17.8,0,26.7,0,0,3.2.8,6.2,1.3,9.3,2.9,0,5.8,0,8.7.3-6.4.6-13.1,0-19.5,0-7.5,0-15.2.4-22.6,0,1.2-.2,2.1-.3,3.2-.8,1.8-2.6,1.8-5.9,2.2-9Z"/>
  <path class="st1" d="M500.2,532.6c4.1-1.1,8.3,1.3,9.3,5.4,1.1,4.1-1.4,8.2-5.4,9.3-4.1,1.1-8.2-1.4-9.3-5.4-1.1-4.1,1.3-8.2,5.4-9.3Z"/>
  <path class="st1" d="M420.8,532.7c3.9-.9,7.8,1.4,8.8,5.3,1,3.9-1.3,7.9-5.1,9-2.6.7-5.3,0-7.2-1.9-1.9-1.9-2.6-4.7-1.9-7.2.7-2.6,2.8-4.6,5.4-5.2Z"/>
  <path class="st2" d="M455.1,348.7c2.2-1.1,28.6-11.1,29.6-11.1.3,0,.6.2.9.3.9,1,1.7,1.6,3,2.3,10.3,5.4,21.4,9.7,32,14.5,23.2,10.5,46.3,21.2,69.4,32.1-.1,5-.2,9.9-.2,14.9-17.4-7.7-34.8-15.5-52.1-23.4-17.1-7.9-34.1-16.1-51.5-23.4,0,8.2.9,57.6-.2,60.7h-12.1s-17.5,0-17.5,0h-48.6c0,.1-12.1.2-12.1.2.2-15,.2-30,0-45l59.3-22Z"/>
  <path class="st2" d="M455.1,348.7c1.9,2.9.8,8.9,1.1,12.4.8,10.6.3,21.3.2,31.9,0,7.5.3,15.1,0,22.6h-48.6c0,.1-12.1.2-12.1.2.2-15,.2-30,0-45l59.3-22Z"/>
  <path class="st3" d="M455.1,348.7c1.9,2.9.8,8.9,1.1,12.4-15.8,6.5-32,12.1-47.9,18.2,0,12.1.3,24.4-.3,36.4h-12.1c.2-14.9.2-29.9,0-45l59.3-22Z"/>
  <path class="st6" d="M485.6,337.9c.9,1,1.7,1.6,3,2.3,10.3,5.4,21.4,9.7,32,14.5,23.2,10.5,46.3,21.2,69.4,32.1-.1,5-.2,9.9-.2,14.9-17.4-7.7-34.8-15.5-52.1-23.4-17.1-7.9-34.1-16.1-51.5-23.4,0,8.2.9,57.6-.2,60.7-.8-6.3-.2-13.4-.2-19.8v-35.9c0-7.3.4-14.7-.2-21.9Z"/>
  <path class="st4" d="M456.2,361c5.8-2.2,11.7-4.2,17.5-6.5.9,20.3,0,40.7.2,61h-17.5c.2-7.5,0-15.1,0-22.6,0-10.6.5-21.3-.2-31.9Z"/>
  <path class="st5" d="M396.5,592.7h11.2s.1,52.3.1,52.3h-9.1s0-25.1,0-25.1v-12.4c-4.5,10.4-9.4,20.7-14.4,30.9h-6.6c-5.1-10.3-9.9-20.9-14.6-31.4l.2,37.8h-9c0-.1-.2-52.1-.2-52.1h11.4c5.3,11.1,10.5,22.3,15.6,33.5,5-11.2,10.2-22.4,15.4-33.5Z"/>
  <path class="st5" d="M198.3,592.8h11.2s15.5,33.4,15.5,33.4c4.1-11.3,9.7-22.3,14.7-33.3h11.6c.5,17.3,0,34.8.1,52.1h-9.1c0,0,0-25.6,0-25.6v-12.2c-4.2,10.6-9.4,20.9-14.1,31.3h-6.5c-4.9-10.3-9.7-20.8-14.3-31.3.2,12.6.2,25.2.2,37.7h-9.1c0-.1,0-52.1,0-52.1Z"/>
  <path class="st4" d="M649.6,605.7c-1-4.4-3.7-8-7.6-10.3-8-4.5-23.1-2.6-32.2-2.7v51.9c0,0,8.7,0,8.7,0v-16.2c5.4,0,10.8,0,16.2-.1,5.3-1.1,9.6-2.9,12.7-7.7,2.8-4.4,3.4-10,2.2-15ZM635.4,620.7c-4,2.3-10.2,3.2-13.5-.7-4.1-4.8-3.3-11.1-4.3-16.9-.1-.8,0-1.6.4-2.2-.3-.9,0-2,.6-2.7,1-1,2.5-.9,3.5,0,0,0,0,0,0,0,.2.1.3.2.5.3.3.2.7.4,1,.5.2,0,.4.2.6.3,0,0,.2,0,.3.1.4.2.8.3,1.2.5,1.9.7,3.8,1.3,5.7,2.1,3.2,1.3,6.9,3,8.4,6.4,2.1,4.5-.4,9.8-4.5,12.2Z"/>
  <path class="st5" d="M551.9,638.1c-3.3-.2-6.5-2.1-8.6-4.6-1-1.2-1.7-2.7-2.4-4.1h30.6c-.3-7.1-1.4-14-6.9-19.1-3.9-3.6-8.8-4.8-13.9-4.7-5.7.7-10.8,2.5-14.4,7.3-3.4,4.4-4.8,10.6-3.9,16.1.9,5.5,4,10.4,8.6,13.5,4.7,3.1,10.5,4.2,16,2.9,4.4-1,8.2-3.3,11.4-6.4-1.6-1.8-3.2-3.5-4.8-5.3-3.4,2.9-7,4.9-11.7,4.5ZM543,619.6c.1-.6.5-1,.9-1.3-.3-.4-.4-.9-.4-1.4,0-1.4,1.2-2.5,2.5-2.5,2.5,0,4.9-.3,7.4-.3,2.5,0,5.8.3,7.5,2.3,1.1,1.3,1.6,3,.8,4.6-.6,1.1-1.8,1.8-2.9,2.1-2.4.7-5,.6-7.5.4-2.2-.2-4.4-.4-6.5-.8-1.4-.3-2-1.8-1.7-3.1Z"/>
  <path class="st5" d="M447.5,610.1c-3.8-3.8-8.9-4.4-14.1-4.2-1,0-2.1,0-3.1.1-3.3.7-6.4,1.6-9.5,2.9l2.3,7.6c4.1-2.2,9.2-3.9,13.8-2.6,2.5.7,4.3,2.6,5.5,4.8.5.9.7,1.6.5,2.5-5.3,3.9-22.5-5.7-25.3,10.7-.5,3.1.3,6,2.1,8.5.6.8,1.3,1.6,2.1,2.3,3.7,2.3,8.5,3.9,12.8,2.8,3.1-.8,5.4-3.5,8.5-4,.3,1,.3,2,.4,3,2.2.8,6.1.3,8.5.3,0-9.4,2.4-27.9-4.5-34.7ZM440,637.4c-.6,1.1-1.7,1.9-2.8,2.4-4.3,1.8-12.3-.1-11.1-6,0-.2.1-.4.2-.5-.6-1.1-.2-2.8.9-3.4,2.3-1.1,5-.8,7.4-.2,1.1.3,2.1.7,3.1,1.3.9.6,1.9,1.3,2.4,2.3.7,1.3.7,2.8,0,4.1Z"/>
  <path class="st4" d="M790.1,634.6l-1.8,1.4c-3.3,1.8-7.1,2.9-10.9,1.9-4.3-1.2-6.9-4.3-8.9-8.1l-.3-.7c10-.5,20-.1,30.1-.2-.1-6.9-.9-13.5-6.3-18.5-4.2-3.9-9.3-4.9-14.9-4.5-.6,0-1.3,0-1.9.1-5.6,1.8-10,4.3-12.9,9.7-2.6,4.9-3.1,11.1-1.3,16.3,1.6,5,5.2,9.1,9.9,11.4,5,2.4,10.9,2.6,16.1.8,3.1-1.1,5.6-2.9,7.9-5.1-1.4-1.8-2.5-4-4.9-4.5ZM770.9,614.7c.6-1.2,2.3-1.5,3.4-.9,0,0,.3.2.4.2.1,0,.2,0,.4.1.3,0,.6.2,1,.2,0,0,0,0,0,0,0,0,0,0,.1,0,.1,0,.3,0,.4,0,.4,0,.8,0,1.1,0,1.5,0,2.9-.2,4.4-.4,2.7-.2,5.7-.2,7.7,1.9.9.9,1.5,2.2,1.4,3.5,0,1.7-1.1,3-2.4,3.9-2.4,1.7-5.5,1.1-8.2.5-2.9-.6-5.8-1.1-8.7-1.8-2-.5-2.4-3.3-.8-4.4-.7-.8-.8-2-.3-3Z"/>
  <path class="st4" d="M706.5,610.4c-3-3.1-7.4-4.5-11.7-4.6-1.9,0-3.8,0-5.7.2-3.4.6-6.5,1.5-9.7,3l2.6,7.5c3.9-2.4,8.9-4,13.5-2.9,2.4.6,3.7,1.6,5,3.8.7,1.2,1.1,2.3,1.1,3.7-.8,1-1,.9-2.3,1.1-7.3.8-14.2-3-20.1,3.8-2.1,2.4-2.9,5.5-2.6,8.7.3,3,1.7,5.4,3.7,7.5,3.1,2.2,7.3,4,11.2,3.4,3.9-.7,6.6-3.8,10.3-4.6.3,1.1.4,2.1.5,3.2,2,1,5.8.4,8.1.4,0-8.9,2.3-27.5-4-34.2ZM697.8,637.1c-.5,2.2-2.3,3.8-4.5,4.2-1.8.3-3.7,0-5.2-1-2.5-1.8-4.2-5-3.9-8.2.2-1.7.7-3.3,2-4.5,1.5-1.3,3.4-1.8,5.4-1.6,1.2,0,2.1.8,2.4,1.9.2,0,.1,0,0,0,0,0,0,0,0,0,.1,0,.3.1.4.2,1,.5,1.8,1.4,2.4,2.4,1.1,1.9,1.5,4.4,1,6.6Z"/>
  <path class="st5" d="M493,591.2h9c.1,10.6.2,21.2.1,31.7,5.1-5.4,10.4-10.8,15.1-16.5,3.7,0,7.5,0,11.2,0-4.7,4.9-9.3,9.8-14.1,14.7,3.8,4.9,7,10.2,10.3,15.4,1.9,2.7,3.6,5.6,5.4,8.4h-10.7c-3.7-5.6-7.3-11.2-10.9-16.9-2,2.4-4.1,4.5-6.3,6.7,0,3.4,0,6.8,0,10.2h-9.3c-.1-18,0-35.9.1-53.8Z"/>
  <path class="st5" d="M302.9,606c1,0,2-.1,3-.2,4.1,0,8.3.8,11.2,3.9,6.3,6.5,4.1,26.1,4.1,35h-9.2c0-6.9,1-16.7-.2-23.2-.4-2.5-1.5-4.9-3.7-6.4-2.6-1.7-5.7-1.2-8.5-.5-1,.7-2,1.5-2.9,2.4-4.2,4.4-2.5,21.8-2.4,27.9l-9.2-.2v-38.2c2.2,0,6.1-.7,8,.4.9,1.2.9,2.1,1,3.6v.6s.5.2.5.2c2.4-2.5,4.4-3.8,7.6-4.9l.7-.2Z"/>
  <path class="st4" d="M736.3,605.6c1.3,0,2.6-.1,3.9,0,6.5.4,10.5,3,14.7,7.7-2,1.9-4.1,3.6-6.2,5.4-2.4-2.7-4.8-4.9-8.6-5.3-2.9-.4-5.7.7-7.9,2.6-2.7,2.4-4.3,6.1-4.4,9.8,0,3.4,1.1,6.8,3.6,9.2,2.2,2.1,5.5,3.4,8.6,3.3,3.5-.1,6-2.1,8.4-4.5l.5-.6c2.2.7,4.5,2.7,6.4,4.1-2.7,3.6-6.3,6.4-10.6,7.8-5,1.5-10.3,1-14.9-1.5-5-2.7-8.6-7.4-10-12.9-1.4-5.4-.5-11.6,2.6-16.3,3.3-5,8.4-7.3,14-8.5Z"/>
  <path class="st2" d="M529.4,489.6c1.3,2.2,1.7,23.5,1,26.5-.2.7-.3.8-.6,1.4-1.6-2.6-3.7-4.1-6.1-5.8-25-1.3-50.3.6-75.4-.2,18.4-3.6,37.1-6,55.6-9,5.6-.9,15.3-1.6,20.2-3.9,3.3-1.6,4.2-5.7,5.3-9Z"/>
  <path class="st5" d="M581.6,596.3h8.9s0,10.2,0,10.2h9s0,7.3,0,7.3h-8.9c0,5.4-1.5,17.4.7,21.8,1.7,3.5,4.8.5,7.6,1.4,1,1.6.8,3,.9,4.8.2.7,0,.9-.2,1.6-1.9,1.4-4,1.9-6.4,2-3.2,0-7-.8-9.4-3.2-4-4-2.4-22.5-2.4-28.6-1.5,0-3,.2-4.5,0-.6-.8-.9-1.5-1.1-2.4-.2-1.1-.2-2.4.6-3.3,1-1.2,2.8-1.3,4.2-1.5h.5c1.2-2.3.5-7.6.5-10.2Z"/>
  <path class="st4" d="M659,590.8h8.8s.1,53.9.1,53.9h-9c.9-17.9.1-36,.2-53.9Z"/>
  <path class="st5" d="M481,606.1c1.6,0,2.6-.3,4,.6.4.9.6,1.5.5,2.6-.1,1.8-.1,3.6-.2,5.5-1.3,0-2.6.1-3.9.3-4.3.8-6.4,3.3-8.7,6.8-.6,7.6-.2,15.4,0,23h-9.1s-.1-38.3-.1-38.3h9.2c0,.1,0,6.3,0,6.3,2.5-3.4,4.4-5.3,8.4-6.8Z"/>
  <path class="st5" d="M332.6,606.5h9.2c.2,12.7.2,25.6,0,38.3h-9.2c0,0,0-38.3,0-38.3Z"/>
  <path class="st5" d="M263.8,606.5h9.1c0,8.3,0,16.5,0,24.8,0,4.4.3,9.2-.3,13.5h-8.9c.3-12.7,0-25.5,0-38.3Z"/>
  <path class="st5" d="M334.7,590.7c2.8-1.3,6.1-.2,7.5,2.6,1.3,2.8.1,6.1-2.6,7.4-2.8,1.3-6.1.1-7.4-2.6-1.3-2.8-.2-6.1,2.6-7.4Z"/>
  <path class="st5" d="M266.7,590.6c2.8-.9,5.8.5,6.9,3.3,1.1,2.7-.2,5.8-2.9,7-1.9.8-4.1.6-5.7-.7-1.6-1.3-2.4-3.3-2.1-5.3.4-2,1.8-3.7,3.7-4.3Z"/>
</svg>