<?xml version="1.0" encoding="UTF-8"?><svg id="Livello_1" xmlns="http://www.w3.org/2000/svg" xmlns:xlink="http://www.w3.org/1999/xlink" viewBox="0 0 1366 768"><defs><linearGradient id="Sfumatura_senza_nome_90" x1="658.87" y1="412.77" x2="647.98" y2="432.74" gradientUnits="userSpaceOnUse"><stop offset="0" stop-color="#012a31"/><stop offset="1" stop-color="#01171f"/></linearGradient></defs><path d="M801.94,295.37c-.6.27-2.81.47-2.97.74-1.14,1.9-.09,38.89,0,44.27-3.62,1.12-4.53-1.34-6.68-1.98-.11-.03-.89.83-2.23.49-.07-.02.2-1.41-.25-1.48-1.74-.3-10.63.46-11.13-.25-1.78-2.5.68-44.99-1.98-50.95-4.1-.58-1.86-2.73-2.47-4.7-.37-1.19-1.42-2.15-2.47-2.47-.24-1.45-.77-3.02-.99-4.45-.03-.17,1.47-2.7-.25-3.46-.68-.3-5.29.09-6.68,0s-2.07-.88-3.96-.49c-2.53-5.81-6.07-8.63-12.61-8.41-.87.03-2.33,1.67-3.46,1.48-.4-.06-4.42-4.66-5.94-5.44-4.79-2.46-10.94-2.39-15.33.99-1.08.83-3.19,4.39-3.46,4.45-1.71.38-5.21-3.63-11.38.99-1.48,1.11-9.76,9.79-7.67,11.87-1.34.88-5.13,1.06-4.95,3.46.23,2.96,54.74-1.92,59.36.49-.34,7.11-1.23,3.75-6.43,5.69l-.99,36.6c-.33.46-2.34.25-2.97.25-.01-1.45.23-10.05-.25-10.39-14.59-.11-29.19.15-43.78,0-.66-3.82,1.38-28.7-1.24-29.68-1.06-.4-19.63-.17-20.03.74v28.44c-17.27-.09-34.68-.36-51.94,0l-.25-39.57-10.14.25v39.32c-11.16.35-22.25,1.26-33.39,1.98-.99.47-.25,6.53-.25,7.91-1.24-.14-9.6.33-9.89.74-.49.7.39,14.68-.49,17.06-2.34.02-4.59.39-6.92.49-1.47.06-3-.13-4.45,0l-.99-37.1c4.95.06,36.76,2.59,38.33,1.48.61-.43-.12-2,.49-2.47.39-.3,9.54,3.74,5.69-2.47-1.12-1.45-9.69-2.92-11.87-2.97.19-2.26-1.69-6.92-2.97-8.9-2.39-3.72-6.53-6.23-11.13-5.44-.6.1-4.2,2.51-4.45,2.47-.5-.07-4.34-6.07-6.92-7.42-5.09-2.66-11-2.61-15.83.49-1.74,1.12-3.69,4.32-3.96,4.45-.64.3-5.6-.75-7.42-.49-4.69.67-5.89,5.43-9.4,7.91l-.25-1.24c72.24-80.44,204.41-80.17,271.55,6.68Z" style="fill:#32919f;"/><path d="M801.94,295.37c13.37,17.29,23.98,36.46,30.67,57.38l.49,51.94c-.11.02-1.62,1.46-1.73,1.48-2.53.57-5.16.91-7.67,1.48-3.34-9.64-8.61-17.37-19.79-18.3-.65-.05-1.33,0-1.98,0,.46-2.21,1.01-17.31.49-18.05-.42-.62-2.41.29-2.97-.99-.6-1.37-.42-25.91-.49-29.93-.09-5.38-1.14-42.37,0-44.27.16-.27,2.37-.47,2.97-.74Z" style="fill:#054d64;"/><path d="M841.51,405.18c-2.15-.58-6.33-.88-8.41-.49l-.49-51.94c5.38,16.83,8.55,34.74,8.9,52.43Z" style="fill:#42a4ae;"/><path d="M841.51,405.18c.12,6,.22,15.55-.99,21.27-.28,1.34-.94,2.26-1.48,3.46-.57.11-.93-.95-.99-.99-2.25-6.48-5.16-12.3-10.88-16.32-1.73-1.22-1.82.54-2.97-1.98-.13-.3-.09-1.79-.49-2.97,2.51-.57,5.13-.92,7.67-1.48.11-.02,1.62-1.46,1.73-1.48,2.08-.39,6.26-.08,8.41.49Z" style="fill:#033349;"/><path d="M774.24,281.52c.61,1.97-1.62,4.12,2.47,4.7,2.66,5.96.2,48.44,1.98,50.95.5.7,9.39-.05,11.13.25.45.08.17,1.47.25,1.48-2.37,3.59,2.4,7.14,2.47,7.67.05.32-.86,6.13-.99,6.43-.63,1.42-5.2.66-6.43.25-2.15-1.7-15.35-11.93-16.57-12.37-2.5-.88-3.32-.17-5.69.49-4.42-2.1-8.69-1.27-13.36-1.48-1-.05-5.58.25-5.94-.25.04-5.55.54-11.01.49-16.57.63,0,2.64.21,2.97-.25l.99-36.6c5.2-1.94,6.09,1.42,6.43-5.69l19.79.99Z" style="fill:#054d64;"/><path d="M798.97,340.38c.07,4.01-.1,28.55.49,29.93.56,1.28,2.54.37,2.97.99.51.74-.04,15.84-.49,18.05-2.67-.04-5.38.2-7.91.99-4.48,1.39-8.28,5.44-10.39,9.65-1.96,3.92-4.34,13.31-5.44,18.05-3.21,13.83,6.82,19.86,19.29,20.77-.44,2-.58,14.59-.49,17.31-3.53-1.49-12.6,3.17-10.39,8.41-4.1.11-8.3.41-12.37.49l.99-97.94c2.95,4.41,6.86,3.39,9.89-.49,1.86,5.7,10.93,1.22,9.89-4.95-.26-1.56-8.12-7.01-9.89-8.41,1.23.42,5.8,1.17,6.43-.25.13-.3,1.04-6.11.99-6.43-.08-.53-4.85-4.08-2.47-7.67,1.34.33,2.12-.53,2.23-.49,2.14.64,3.06,3.1,6.68,1.98Z" style="fill:#033349;"/><path d="M700.04,312.68c-7.07-.07-14.24-.46-21.27-.49v-28.44c.41-.92,18.97-1.14,20.03-.74,2.62.98.57,25.86,1.24,29.68Z" style="fill:#054d64;"/><path d="M626.84,312.18c-3.44.07-7.09-.1-10.39,0v-39.32l10.14-.25.25,39.57Z" style="fill:#235375;"/><path d="M582.82,322.08c0,.16,0,.33,0,.49.06,6,.69,11.19,0,17.31-1.2.13-2.23.43-3.46.49-2.19.11-4.26-.5-5.94-.49-.33,0-.66,0-.99,0,.88-2.39,0-16.37.49-17.06.29-.42,8.65-.88,9.89-.74Z" style="fill:#054d64;"/><path d="M564.02,287.95l13.6,3.46c4.78,2.2,9.29,4.78,14.1,6.92,4.38,1.95,7.54,5.07,13.11,3.96.65-.4.15-1.96-.25-2.47,3.85,6.21-5.3,2.17-5.69,2.47-.61.47.12,2.04-.49,2.47-1.57,1.1-33.38-1.42-38.33-1.48-7.42-.09-14.85.05-22.26,0v-.49l4.45-.74c-1.13-.86-6.75-4.99-6.92-5.94-.63-3.39,10.16-5.9,12.61-5.69,1.76.15,5.1,2.73,6.43,2.47.55-.11,4.38-4.08,9.65-4.95Z" style="fill:#f8e1d4;"/><path d="M537.8,302.79v.49c-2.8-.02-5.91.58-8.9.49s-6.46.13-8.9,0c.63-.98-4.66-2.37-4.45-.49-1.03-.25-1.3-.37-1.98-1.24,2.75-1.97,5.21-9.12,9.15-8.66.68.08,2.31,1.97,2.47,1.98.94.04,2.9-4.3,3.96-4.45,1.74-.25,5.87,10.45,8.66,11.87Z" style="fill:#f8e1d4;"/><path d="M589.74,287.95c1.28,1.98,3.16,6.64,2.97,8.9,0,.09-1.37.45-.99,1.48-4.8-2.14-9.32-4.73-14.1-6.92l-13.6-3.46c6.94-1.14,14.25.51,20.03,3.96.66.39,6.5,5.75,6.92,5.44,1.5-2.9-.72-6.39-1.24-9.4Z" style="fill:#e5d7b5;"/><path d="M520,303.78c-.72-.04-3.95-.37-4.45-.49-.21-1.87,5.09-.48,4.45.49Z" style="fill:#f59077;"/><path d="M604.58,299.82c.4.52.89,2.07.25,2.47-5.56,1.11-8.73-2-13.11-3.96-.38-1.03.98-1.4.99-1.48,2.18.05,10.76,1.52,11.87,2.97Z" style="fill:#f5c3aa;"/><path d="M678.78,312.18h-51.94c17.26-.36,34.67-.09,51.94,0Z" style="fill:#74858a;"/><path d="M756.43,273.11c2.44,1.6,5.17,4.2,8.66,5.44,1.89.67,5.55.15,6.68.49,1.06.33,2.1,1.28,2.47,2.47l-19.79-.99c-4.62-2.42-59.13,2.46-59.36-.49,2.36-1.36,8.81.57,10.14,0,.51-.22.1-1.28.25-1.48,1.56-2.16.87-3.54,1.48-4.7,1.17-2.2,11.08-3.99,13.6-3.71.61.07,2.76,1.86,3.96,1.98.32.03,4.78-3.25,5.44-3.46,13.69-4.41,14.78-3.21,26.46,4.45Z" style="fill:#f8e1d4;"/><path d="M759.9,270.64c-1.24.25-2.87,1.32-3.46,2.47-11.68-7.66-12.78-8.86-26.46-4.45-.66.21-5.12,3.49-5.44,3.46-1.2-.12-3.34-1.91-3.96-1.98-2.52-.28-12.43,1.51-13.6,3.71-.61,1.16.07,2.54-1.48,4.7l-1.73-7.42c-3.05,1.3-.73,3.48-3.71,5.44-2.09-2.08,6.19-10.76,7.67-11.87,6.17-4.62,9.67-.61,11.38-.99.28-.06,2.39-3.62,3.46-4.45,4.39-3.38,10.54-3.45,15.33-.99,1.52.78,5.54,5.38,5.94,5.44,1.13.18,2.6-1.46,3.46-1.48,6.54-.22,10.09,2.6,12.61,8.41Z" style="fill:#fefdfe;"/><path d="M763.85,271.13c.78,3.61,5.11-.23,6.92,3.46.22,1.43.74,3,.99,4.45-1.12-.35-4.79.18-6.68-.49-3.48-1.24-6.21-3.84-8.66-5.44.59-1.16,2.22-2.22,3.46-2.47,1.88-.38,2.52.4,3.96.49Z" style="fill:#f5c3aa;"/><path d="M705.49,278.55c-.15.2.27,1.26-.25,1.48-1.33.57-7.78-1.36-10.14,0-.19-2.4,3.61-2.58,4.95-3.46,2.98-1.96.66-4.15,3.71-5.44l1.73,7.42Z" style="fill:#f5c3aa;"/><path d="M770.78,274.59c-1.82-3.7-6.14.15-6.92-3.46,1.39.09,5.99-.3,6.68,0,1.72.76.22,3.29.25,3.46Z" style="fill:none;"/><path d="M505.65,349.28c.06,3.22.04,26.55,1.24,27.2.27.15,2.24.08,2.72-.25.6-.85-.43-18.96.49-20.77.37-.72,2.75-.64,2.97-.99,1.19-1.97-2.41-4.43,2.47-5.19,1.33-.21,9.14-.58,10.39-.49s3.02.7,4.45.74c-.33,3.59.23,7.09.49,10.63.04.57-.66.29-.49,1.48,1.07,7.64,8.23,10.55,10.39,4.45,1.19,5.5,6.91,4.36,9.89.99.18.45,5,2.49,5.94,2.47-1.31,18.95,1.69,40.12,0,58.86-3.2.5-5.79.88-7.91,3.71.18,1.26,6.72.94,7.42.25-.09.57.48.46.49.49.18,10.68.19,21.2-.99,31.66-9.57-.11-19.12.39-28.69.49,3.08-6.65-1.35-5.33-1.98-6.68-.37-.79-.74-15.84-.49-17.31.08-.47,1.24-1.61,1.48-2.23,5.25-1,18.8-1.24,18.8-8.9v-.99c1.64-1.27,4.3-4.07,4.45-6.18s-2.37-5.89-2.47-6.92c-.19-1.89.85-5.51.49-8.16-1.72-12.74-15.44-19.45-27.2-17.81-4.86.68-7.19,1.96-10.39,5.69-2.42,2.81-6.94,12.59-6.43,16.08-3.73-.14-5.54,2.98-7.42,5.44-1.21,1.58-3.18,4.43-3.96,6.18-1.67,3.74-1.88,8.14-2.97,11.13-.92-.77-.95-5-.99-6.18-.98-31.18,1.01-55.09,11.87-84.34l2.97.25c.42,3.49-1.72,6.53,2.97,5.19Z" style="fill:#033349;"/><path d="M528.9,303.78c-1.51,6.78,1.99,30,0,34.87-.4.98-2.07.5-2.47,1.48-.61,1.49.6,6.52-.49,8.66-1.25-.08-9.06.29-10.39.49-1.11-3.35.91-18.48,0-20.53-.68-1.53-7.22-.18-8.9-1.24,4.04-8.17,8.72-15.92,13.36-23.74,2.45.13,5.98-.08,8.9,0Z" style="fill:#32919f;"/><path d="M515.55,349.28c-4.88.76-1.29,3.23-2.47,5.19-.21.35-2.6.27-2.97.99-.93,1.81.11,19.93-.49,20.77-.48.32-2.45.4-2.72.25-1.2-.65-1.18-23.98-1.24-27.2-.12-6.39.09-12.87,0-19.29.37-.79.57-1.62.99-2.47,1.68,1.06,8.23-.29,8.9,1.24.91,2.04-1.11,17.18,0,20.53Z" style="fill:#235375;"/><path d="M505.65,349.28c-4.68,1.34-2.55-1.7-2.97-5.19l-2.97-.25c2.05-5.52,3.43-8.58,5.94-13.85.09,6.42-.12,12.9,0,19.29Z" style="fill:#32919f;"/><path d="M560.06,303.28l.99,37.1c-10.99.98-5.55,1.33-12.61,6.92-5.67,4.49-12.13,8.03-17.56,12.86-.27-3.54-.83-7.04-.49-10.63-1.43-.04-3.2-.66-4.45-.74,1.1-2.14-.11-7.17.49-8.66.4-.98,2.07-.5,2.47-1.48,1.99-4.87-1.51-28.09,0-34.87,2.99.09,6.11-.51,8.9-.49,7.41.05,14.84-.09,22.26,0Z" style="fill:#054d64;"/><path d="M556.6,428.42c-.11,1.23.44,3.03-.49,3.96-.7.69-7.24,1.02-7.42-.25,2.13-2.83,4.71-3.21,7.91-3.71Z" style="fill:#77c113;"/><path d="M808.86,438.32l1.48,25.72c-1.49-.03-5.4,1-6.92.99.58-8.57-1.01-17.73.49-26.22,1.69-.17,3.23-.47,4.95-.49Z" style="fill:#0b032e;"/><path d="M810.84,438.32c.21,3.24,1.04,6.52,3.46,8.9.24,1.04.44,1.16.99,1.98l-.99,14.84c-1.31-.06-2.64.02-3.96,0l-1.48-25.72c.16,0,.33,0,.49,0h1.48Z" style="fill:#b53c39;"/><path d="M796.99,456.12c.08,2.54,1.58,5.6.99,8.41-3.78.02-7.6-.1-11.38,0-2.21-5.24,6.86-9.9,10.39-8.41Z" style="fill:#d15145;"/><path d="M818.26,451.67c-.5,3.28.89,9.52-.49,12.37-.17.34-.43.62-.49.99-1.63-.21-1.91-.94-2.97-.99l.99-14.84c.13.2,2.61,2.31,2.97,2.47Z" style="fill:#62053b;"/><path d="M854.37,449.69c-4.22-3.43-5.85-2.09-10.39-1.48.38-1.3-.32-2.5-.49-3.46-.56-3.03-.24-5.1-.49-7.91,6.22,2.26,12.81.54,11.87-7.17-.43-1.23-4.39-2.25-5.44-2.23-.05-.56-.76-1.14-.99-1.48-.19-.29-.03-.98-.99-1.48,5.72-1.12,9.46,1.04,12.86,5.69,6.89,9.43,4.89,16.02-5.94,19.54Z" style="fill:#5f921d;"/><path d="M854.37,449.69c-.89.29-1.86,1.47-1.98,1.48-1.64.25-1.71-.96-3.46-.99-3.98-.07-1.11,11.79-1.98,14.84-2.46,0-5.09-.5-7.42-.49v-.49l.49-14.34c.65-.01,2.84-1.34,3.96-1.48,4.54-.61,6.16-1.95,10.39,1.48Z" style="fill:#0b032e;"/><path d="M847.45,424.47c.96.5.79,1.2.99,1.48-4.24-.64-8.8,4.99-7.91,8.9-.33-.09-.56.15-.49.49-4.61-2.87-6.4,6.23-3.96,10.88-.18,2.54-1.88-1.17-2.97-1.48-.32-3.19-.19-3.88,0-6.92,2.51-2.68,4.37-4.45,5.94-7.91.54-1.2,1.2-2.12,1.48-3.46,2.36.77,3.94-1.4,6.92-1.98Z" style="fill:#fafda7;"/><path d="M852.39,451.18c.31,4.47-.42,9.45,0,13.85h-2.97l-.49-14.84c1.75.03,1.82,1.24,3.46.99Z" style="fill:#071a2b;"/><path d="M848.93,450.19l.49,14.84h-2.47c.87-3.05-2-14.91,1.98-14.84Z" style="fill:#bb1a4e;"/><path d="M842.99,436.83c-.07-.83-.54-2.65-.99-3.46,1.88-3.02,3.27-5.82,7.42-5.94,1.05-.03,5.01.99,5.44,2.23.94,7.71-5.65,9.43-11.87,7.17Z" style="fill:#77c113;"/><path d="M840.03,435.35c3.13,1.95,1.21,8.39-1.98,10.14l5.44-.74c.18.96.88,2.16.49,3.46-1.11.15-3.31,1.47-3.96,1.48-1.04.02-1.68-.8-2.47-.99-.55-.78-1.04-1.63-1.48-2.47-2.44-4.65-.65-13.75,3.96-10.88Z" style="fill:#57a234;"/><path d="M848.43,425.95c.23.34.94.92.99,1.48-4.15.11-5.54,2.91-7.42,5.94-.74,1.2.36,1.98-1.48,1.48-.88-3.92,3.68-9.54,7.91-8.9Z" style="fill:#ddec49;"/><path d="M842.99,436.83c.25,2.81-.06,4.88.49,7.91l-5.44.74c3.19-1.75,5.11-8.19,1.98-10.14-.06-.35.16-.58.49-.49,1.84.5.74-.29,1.48-1.48.45.82.91,2.63.99,3.46Z" style="fill:#45871c;"/><path d="M837.55,448.7c.8.19,1.43,1.01,2.47.99l-.49,14.34c-2.03-.2-4.47.28-6.43,0l.49-12.37c3.25-2.39-.06-3.94,3.96-2.97Z" style="fill:#e1625c;"/><path d="M915.71,490.25l-502.05.49c4.79-2.11,9.88-3.74,14.84-5.44l24.48-1.98-2.23-2.97c6.09-.14,12.21.11,18.3,0,135.65-2.47,271.74,1.95,407.33-1.98.9-.03,2.44.5,2.23-.99,12.55,3.58,24.62,9.15,37.1,12.86Z" style="fill:#a67ab1;"/><path d="M921.64,492.73c.19,4.61-2.6,5.72-6.18,7.42l-494.63.49c-2.95-1.75-9.18-.51-10.63-3.71-.1-.22-.59-4.46-.49-4.7l14.1,2.97c151.92-1.02,304.22-.57,455.56-.99,10.41-.03,23.81.54,33.64,0,2.91-.16,5.92-2.04,8.66-1.48Z" style="fill:#0b032e;"/><path d="M915.71,490.25c2.57.76,4.29,2.47,5.69,0,.46.28.22,1.91.25,2.47-2.74-.56-5.75,1.32-8.66,1.48-9.83.54-23.23-.03-33.64,0-151.34.41-303.64-.03-455.56.99l-14.1-2.97c.5-1.19,3.13-1.12,3.96-1.48l502.05-.49Z" style="fill:#6e4689;"/><path d="M494.28,474.92h5.44c1.64,0,3.3,0,4.95,0h33.14c25.22,0,50.49-.48,75.68-.49,5.6,0,11.22,0,16.82,0,20.88,0,41.92.47,62.82.49,2.63,0,5.28,0,7.91,0,8.57.01,17.17-.02,25.72,0,6.26.01,12.54-.02,18.8,0,4.11.01,8.25-.01,12.37,0,15.65.05,31.34-.07,46.99,0,2.3.01,4.62-.01,6.92,0,17.38.09,44.24-2.23,60.35,0,2.14.3,4.34,1.88,6.43,2.47.22,1.48-1.32.96-2.23.99-135.59,3.92-271.68-.49-407.33,1.98,1.64-.82.02-1.58.49-2.23.82-1.11,4-1.84,4.45-3.22,0-.16,0-.33,0-.49h.49c6.51.9,13.23.49,19.79.49Z" style="fill:#895ba3;"/><path d="M474,474.92c-.46,1.37-3.63,2.11-4.45,3.22-.47.64,1.14,1.41-.49,2.23-6.09.11-12.22-.14-18.3,0-2.46.06-3.44-.71-5.94-.49,2.13-2.63,7.61-2.1,8.9-4.95h20.28Z" style="fill:#895ba3;"/><path d="M450.75,480.36l2.23,2.97-24.48,1.98c4.87-1.67,11.3-5.01,16.32-5.44,2.49-.21,3.48.55,5.94.49Z" style="fill:#895ba3;"/><path d="M814.31,464.04c1.05.05,1.33.78,2.97.99,1.9.25,3.68.58,5.44-.49,3.11.42,5.8.41,8.9.49,2.66.08,5.39-.49,7.91-.49,2.33,0,4.96.49,7.42.49h5.44c.03.32-.06.68,0,.99-3.55.51-7.94-1.06-10.39,2.47-1.23,1.78-.27,4.36-.49,4.7-1.87,2.75-25.4-.15-29.68,1.73-2.3-.01-4.62.01-6.92,0-3.63-4.28-2.19-.81-4.2-.49-1.79.28-20.72.32-21.76,0-.43-.13-1.15-1.43-1.24-1.48-.07-.04.17-.99-.74-1.48-2.87-1.54-4.12,1.95-3.71-5.94.47-.01.52-.48.99-.49,4.06-.09,8.26-.38,12.37-.49,3.78-.1,7.6.02,11.38,0,.82,0,1.65,0,2.47,0,1.18,0,1.78.48,2.97.49,1.52.01,5.44-1.02,6.92-.99,1.31.02,2.65-.06,3.96,0Z" style="fill:#77c113;"/><path d="M852.39,466.02c.03.17-.05.36,0,.49.14.39-.26,1.25.25,1.48l19.54-.99c.16.3-.05,1.82,0,2.47-4.12.65-16.72-1.28-19.29.99-.9.8-.12,1.93-1.24,2.47-.4.19-8.53.74-8.9.49-.27-.18-.81-4.18-.74-4.95,2.44-3.53,6.83-1.96,10.39-2.47Z" style="fill:#7db014;"/><path d="M852.89,470.47c1.05.25.08,2.01.74,2.47.86.59,15.65-.45,18.05,0-.05.93.61,1.12.49,1.98-16.11-2.23-42.96.09-60.35,0,4.27-1.88,27.81,1.02,29.68-1.73.23-.34-.73-2.92.49-4.7-.07.76.47,4.77.74,4.95.37.25,8.5-.3,8.9-.49,1.12-.54.33-1.67,1.24-2.47Z" style="fill:#4a403c;"/><path d="M872.18,469.48c.12,1.56-.44,2.57-.49,3.46-2.41-.45-17.2.59-18.05,0-.66-.46.3-2.22-.74-2.47,2.57-2.27,15.17-.34,19.29-.99Z" style="fill:#757a23;"/><path d="M496.26,465.03c.33,0,.66,0,.99,0l.99,2.23c-.81,1.45-23.75.61-27.2.25-.05-.43.52-.66.49-.74-.17-.45-.77-.15-.99-.25.13-.01,2.06-.96,2.47-.99,1.14-.09,2.32.08,3.46,0,.18-.01,1.04.06,1.98,0,1.72-.11,4.72.1,6.92,0,.65-.03,1.33.03,1.98,0,2.96-.13,5.9-.41,8.9-.49Z" style="fill:#aad429;"/><path d="M471.03,471.46c1.13.26,2.9,1.63,2.97,2.97,0,.16,0,.33,0,.49h-20.28c.51-1.68-.48-4.16-.49-5.44,5.19,2.5,12.8.85,17.81,1.98Z" style="fill:#27202a;"/><path d="M471.03,467.5c.15,1.28-.11,2.67,0,3.96-5-1.13-12.62.53-17.81-1.98,0-.46-.1-1.15,0-1.48,5.41-1.24,11.12-.03,16.57-.49.38-.03.68-.98.74-.99.22.1.82-.2.99.25.03.08-.55.31-.49.74Z" style="fill:#846e2f;"/><path d="M555.61,464.53c-.05.4.64.56.49,1.48-.31,1.93-.08,2.01-.99,3.96-3.06-.25-12.99-1.32-15.33-.49-2.49.87.74,3.73-1.98,4.95l-25.23-1.48c1.23-.2-.43-6.59-1.24-6.92-2.88-1.2-11.91,2.04-13.6-.99,1.81-.05,3.64.04,5.44,0,1.64-.04,3.3.03,4.95,0,3.62-.07,7.26.04,10.88,0,.98,0,1.98,0,2.97,0,1.64-.01,3.3.02,4.95,0,9.57-.1,19.12-.61,28.69-.49Z" style="fill:#7db014;"/><path d="M719.83,465.03c.1.03.54,1.19,1.48,1.48,5.64,1.76,21.09,1.41,28.19,1.48-.98.97-1.43,3.33-.99,4.45l-2.97,2.47c-6.26-.02-12.54.01-18.8,0-4.52-3.7-3.43-.73-6.18-.49-1.56.13-12.74.27-13.36,0-1.59-.7.03-4.01-1.24-4.95.09-.81.17-1.66.25-2.47-6.18-.06-12.37.08-18.55,0-4.34-.05-8.68-.65-13.11-.49-2.47.09-6.98,2.97-6.68-.99,1.64-.01,3.3.02,4.95,0,7.87-.09,15.81-.49,23.74-.49,4.85,0,18.98-.95,21.76-.49.26.04,1.04.35,1.48.49Z" style="fill:#77c113;"/><path d="M655.03,466.51c-1.39.75-.72,1.42-.99,1.98-.03.07-.61-.21-.99.25-.22.27.34,1.81-.25,2.23-.89.63-13.74.36-15.83.49l-.99-2.97c.02,5.37-1.53,4.48-5.69,5.94-5.6,0-11.22,0-16.82,0-2.48-.67-3.03-1.72-3.96-3.96,1.3-3.48-2.6-1.13-3.46-4.95,16.33.29,32.66,1.05,48.97.99Z" style="fill:#77c113;"/><path d="M512.58,472.94l-7.91,1.98c-1.64,0-3.3,0-4.95,0-2.6-4.78-2.81-.79-5.44-.49-6.14.7-13.5-.52-19.79,0h-.49c-.07-1.34-1.84-2.71-2.97-2.97-.11-1.29.15-2.68,0-3.96,3.45.37,26.4,1.2,27.2-.25l-.99-2.23c.16,0,.33,0,.49,0,1.69,3.03,10.73-.21,13.6.99.8.34,2.46,6.73,1.24,6.92Z" style="fill:#90a433;"/><path d="M654.04,468.49c.16,1.02-.61,1.9.74,2.47.61.26,12.76.29,13.36,0,.51-.25.77-2.5.99-2.47.49.05-.18,1.92.99,2.47,1.74.82,14.68-.31,17.56-.49.8,4.03,3.07,2.44,5.44,4.45-20.9-.03-41.94-.5-62.82-.49,4.16-1.45,5.71-.56,5.69-5.94l.99,2.97c2.09-.13,14.94.14,15.83-.49.59-.42.03-1.96.25-2.23.37-.45.96-.18.99-.25Z" style="fill:#27202a;"/><path d="M705.98,469.48c-.53,4.61-.03,4.63-4.95,5.44-2.63,0-5.28,0-7.91,0-2.37-2.01-4.64-.42-5.44-4.45-.2-.99.14-2.39,0-3.46,6.17.08,12.37-.06,18.55,0-.07.82-.15,1.66-.25,2.47Z" style="fill:#77c113;"/><path d="M539.78,469.48c-1.56,5.74,10.63,3.2,14.34,2.97.02,0,0,.04.49,0,2.24-.16,5.15,2.48,5.19-2.47.28,5.8,13.32,4.93,17.81,4.45.76-.08,2.32-2.01,2.47-1.98.2.03.45,1.42.99,1.48,4.63.55,23.04,1.35,26.22-.49.87-.51,1.9-2.09,2.23-2.97.93,2.24,1.48,3.29,3.96,3.96-25.19.01-50.46.49-75.68.49v-.49c2.72-1.22-.51-4.07,1.98-4.95Z" style="fill:#363521;"/><path d="M777.7,472.94c.08.05.8,1.35,1.24,1.48,1.04.32,19.98.28,21.76,0,2.02-.32.57-3.79,4.2.49-15.65-.07-31.34.05-46.99,0v-.49c3.81-.33,4.89-.66,6.43-4.45,0,6.29,1.59,4.71,7.17,3.96.27-.04,1.18-1.42,1.48-1.48.25-.05,3.06,1.03,4.7.49Z" style="fill:#3a2c30;"/><polygon points="512.58 472.94 537.8 474.42 537.8 474.92 504.66 474.92 512.58 472.94" style="fill:#5c612b;"/><path d="M726.76,474.92c-8.55-.02-17.15.01-25.72,0,4.92-.81,4.42-.83,4.95-5.44,1.27.93-.35,4.25,1.24,4.95.61.27,11.79.13,13.36,0,2.75-.23,1.66-3.21,6.18.49Z" style="fill:#5d435a;"/><path d="M757.92,474.42v.49c-4.11-.01-8.25.01-12.37,0l2.97-2.47c.78,2,7.21,2.17,9.4,1.98Z" style="fill:#363521;"/><path d="M494.28,474.42v.49c-6.55,0-13.28.41-19.79-.49,6.28-.52,13.64.7,19.79,0Z" style="fill:#58721e;"/><path d="M499.72,474.92h-5.44v-.49c2.63-.3,2.84-4.28,5.44.49Z" style="fill:#61472b;"/><path d="M773.25,465.52c-.41,7.89.84,4.39,3.71,5.94.92.49.67,1.44.74,1.48-1.64.54-4.45-.54-4.7-.49-.3.06-1.21,1.45-1.48,1.48-5.58.75-7.17,2.33-7.17-3.96v-1.98c1.34-.23,2.31-.46,1.98-1.98.33,0,.66,0,.99,0,1.75-.04,3.87-.45,5.94-.49Z" style="fill:#77c113;"/><path d="M833.1,464.04c1.96.28,4.4-.2,6.43,0v.49c-2.53,0-5.25.57-7.91.49-.24-.75.42-.95.49-1.48.44-.02.49.43.99.49Z" style="fill:#b53c39;"/><path d="M570.45,464.53c11.79.03,23.77.78,35.61.99.86,3.81,4.77,1.46,3.46,4.95-.33.88-1.35,2.46-2.23,2.97-3.17,1.85-21.59,1.05-26.22.49-.54-.06-.79-1.45-.99-1.48-.16-.03-1.71,1.9-2.47,1.98-4.49.48-17.53,1.35-17.81-4.45-.05,4.96-2.96,2.31-5.19,2.47l-.49-.99c.12-1.45.59-.64.99-1.48.91-1.94.68-2.03.99-3.96,4.55-1.96,9.47-1.5,14.34-1.48Z" style="fill:#77c113;"/><path d="M555.12,469.97c-.4.85-.87.03-.99,1.48-.03.32.01.66,0,.99-3.72.23-15.91,2.77-14.34-2.97,2.35-.82,12.27.24,15.33.49Z" style="fill:#757a23;"/><path d="M667.89,465.52c-.3,3.96,4.21,1.08,6.68.99,4.42-.16,8.77.44,13.11.49.14,1.07-.2,2.47,0,3.46-2.88.19-15.82,1.31-17.56.49-1.16-.55-.5-2.42-.99-2.47-.21-.02-.48,2.22-.99,2.47-.6.29-12.74.26-13.36,0-1.35-.57-.58-1.45-.74-2.47.27-.56-.4-1.23.99-1.98,2.02,0,4.14-.48,6.43-.49,2.14-.01,4.13-.48,6.43-.49Z" style="fill:#8d9219;"/><path d="M764.35,467.99v1.98c-1.55,3.8-2.62,4.12-6.43,4.45-2.18.19-8.62.02-9.4-1.98-.44-1.12,0-3.48.99-4.45,3.99.04,11.29.6,14.84,0Z" style="fill:#757a23;"/><path d="M766.33,466.02c.33,1.52-.63,1.75-1.98,1.98-3.55.6-10.85.04-14.84,0-7.11-.07-22.55.28-28.19-1.48,14.99-1.05,30.02-.12,45.01-.49Z" style="fill:#c9d041;"/><path d="M554.62,472.45c-.49.04-.47,0-.49,0,.01-.33-.03-.67,0-.99l.49.99Z" style="fill:#262044;"/><path d="M823.7,407.65c.41,1.18.36,2.67.49,2.97-1.44,2-3.22,3.04-4.95,4.95-4.95,5.47-4.69,8.4-7.91,13.85l-12.61,1.48c-.46.32-.25,3.65-.25,4.45,0,.97-.09,2.01,0,2.97-.22.07-.98.44-.99.49-12.47-.92-22.5-6.94-19.29-20.77,2.05,2.17-.59,8.01,4.45,8.9.13.22,3.49,3.34,3.71,3.46,6.89,3.7,8.06-3.41,8.66-8.41.51-4.3.73-6.23-2.47-10.39,1.92-1.34,2.91,1.6,4.7,1.98,6.52,1.39,12.75-1.63,14.59-8.16,1.11-3.95,1.82-8.03-2.72-9.65-5.27-1.87-5.5,3.12-5.19-6.43,11.18.93,16.45,8.66,19.79,18.3Z" style="fill:#5f921d;"/><path d="M801.94,389.35c.65,0,1.33-.05,1.98,0-.31,9.55-.07,4.56,5.19,6.43,4.54,1.61,3.83,5.7,2.72,9.65-1.84,6.53-8.07,9.55-14.59,8.16-1.78-.38-2.78-3.32-4.7-1.98-.23-.3-1.66-1.71-1.98-1.98,2.31-5.73,3.99-10.56,9.89-13.6l-6.43-5.69c2.54-.79,5.25-1.03,7.91-.99Z" style="fill:#77c113;"/><path d="M810.84,438.32h-1.48c1.91-4.52-3.1-3.66-5.19-1.98-1.61,1.29-.17,2.06-.25,2.47-1.5,8.49.09,17.64-.49,26.22-1.19,0-1.79-.49-2.97-.49-.6-8.49-.34-17-.99-25.47-.03-.4-.92.04-.99-.74-.09-.96,0-2,0-2.97,6.18-2.13,9.22.22,12.86-5.94.43,3-.69,5.96-.49,8.9Z" style="fill:#a40d3b;"/><path d="M800.46,464.53c-.82,0-1.65,0-2.47,0,.59-2.81-.91-5.87-.99-8.41-.08-2.72.06-15.31.49-17.31.01-.05.77-.42.99-.49.07.78.96.34.99.74.65,8.48.39,16.98.99,25.47Z" style="fill:#0b032e;"/><path d="M790.56,409.63c-1.26-1.06-2.34-2.38-3.96-2.97-3.24,4.36-6.63,15.6-3.96,20.28-5.04-.9-2.4-6.73-4.45-8.9,1.1-4.74,3.48-14.14,5.44-18.05,2.11-4.2,5.91-8.25,10.39-9.65l6.43,5.69c-5.91,3.04-7.58,7.87-9.89,13.6Z" style="fill:#ddec49;"/><path d="M795.01,421.99c-.6,5-1.77,12.11-8.66,8.41-.22-.12-3.58-3.24-3.71-3.46-2.67-4.68.72-15.92,3.96-20.28,2.16,2.9,3.59,4.6,5.44,7.67.31.52,1.21-.02,1.48.49.42.79.71,5.92,1.48,7.17Z" style="fill:#57a234;"/><path d="M811.34,429.41c-3.64,6.15-6.68,3.81-12.86,5.94,0-.8-.21-4.13.25-4.45l12.61-1.48Z" style="fill:#32072a;"/><path d="M790.56,409.63c.32.27,1.75,1.68,1.98,1.98,3.2,4.16,2.99,6.09,2.47,10.39-.77-1.25-1.06-6.39-1.48-7.17-.28-.51-1.17.02-1.48-.49-1.86-3.07-3.28-4.76-5.44-7.67,1.61.59,2.7,1.9,3.96,2.97Z" style="fill:#5f8027;"/><path d="M809.36,438.32c-.16,0-.33,0-.49,0-1.72.03-3.26.32-4.95.49.07-.42-1.36-1.18.25-2.47,2.09-1.68,7.11-2.54,5.19,1.98Z" style="fill:#e7c035;"/><path d="M832.11,452.66c-.33,3.41.46,7.59,0,10.88-.07.53-.73.74-.49,1.48-3.1-.09-5.8-.08-8.9-.49-.51-.07-.92-.41-1.98-.49l1.48-11.38c2.32.38,7.78.7,9.89,0Z" style="fill:#5b4538;"/><path d="M820.74,464.04c1.06.08,1.47.43,1.98.49-1.76,1.08-3.54.74-5.44.49.07-.37.33-.64.49-.99.98.05,1.99-.08,2.97,0Z" style="fill:#b5ea3a;"/><path d="M838.05,428.92c-.42-.3-1.15-.14-1.98-1.24-.09-.12-.22-2.71-.99-2.47-.68,2.77-.99,5.61-1.48,8.41-.33,1.85-.35,1.81-.49,4.2-.19,3.04-.32,3.73,0,6.92.23,2.27,2.8,4.2.25,6.43-1.08.94-7.05,1.45-7.91.99-.77-.41.84-2.39-.25-3.71-.58-.71-5.98-2.6-7.91-5.19-.34-.46-1.34-2.44-1.48-2.97,15.69,9.45,17.39-13.93,11.38-22.75.76-4.74-3-3.9-2.97-4.2l2.97-.74c5.72,4.03,8.63,9.85,10.88,16.32Z" style="fill:#90a433;"/><path d="M827.17,412.6l-2.97.74c-.03.3,3.72-.54,2.97,4.2s-9.99,15.37-11.38,19.79c-1.2-.28-1.56-6.63-1.48-7.17.58-4.05,11.42-12.41,4.95-14.59,1.73-1.91,3.51-2.94,4.95-4.95,1.15,2.52,1.24.76,2.97,1.98Z" style="fill:#c9d041;"/><path d="M838.05,428.92c.06.04.42,1.1.99.99-1.56,3.47-3.42,5.23-5.94,7.91.15-2.39.17-2.35.49-4.2.5-2.8.81-5.64,1.48-8.41.77-.23.9,2.35.99,2.47.83,1.1,1.56.94,1.98,1.24Z" style="fill:#45871c;"/><path d="M817.27,443.26c1.93,2.59,7.33,4.48,7.91,5.19,1.09,1.32-.52,3.3.25,3.71.86.46,6.84-.05,7.91-.99,2.55-2.23-.02-4.16-.25-6.43,1.09.32,2.79,4.02,2.97,1.48.44.84.93,1.69,1.48,2.47-4.02-.97-.7.58-3.96,2.97-.24.18-1.4.96-1.48.99-2.11.7-7.57.38-9.89,0-1.61-.26-2.37-.25-3.96-.99-.35-.17-2.83-2.27-2.97-2.47-.55-.82-.75-.93-.99-1.98-.72-3.09-.08-2.99,2.97-3.96Z" style="fill:#77c113;"/><path d="M815.79,437.33c-.5,1.59-.43,1.33,0,2.97.14.53,1.14,2.51,1.48,2.97-3.04.96-3.69.86-2.97,3.96-2.42-2.38-3.25-5.66-3.46-8.9-.19-2.95.93-5.91.49-8.9,3.22-5.45,2.96-8.38,7.91-13.85,6.47,2.18-4.37,10.54-4.95,14.59-.08.55.28,6.89,1.48,7.17Z" style="fill:#f9fd74;"/><path d="M822.22,452.66l-1.48,11.38c-.97-.08-1.99.05-2.97,0,1.39-2.85,0-9.08.49-12.37,1.58.74,2.35.73,3.96.99Z" style="fill:#f8e1d4;"/><path d="M833.1,464.04c-.49-.07-.55-.52-.99-.49.46-3.29-.33-7.48,0-10.88.08-.03,1.24-.81,1.48-.99l-.49,12.37Z" style="fill:#f9ac87;"/><path d="M815.79,440.3c-.43-1.64-.5-1.38,0-2.97,1.39-4.42,10.64-15.16,11.38-19.79,6.01,8.82,4.32,32.2-11.38,22.75Z" style="fill:#77c113;"/><path d="M486.86,444.25c-.15,4.74-.68,9.59-.99,14.34l-5.44.74c.22-2.09-.3-4.68,0-6.68.11-.76.18-1.76.49-2.47.25-.56,4.96-5.21,5.94-5.94Z" style="fill:#f59077;"/><path d="M488.84,441.78c-.12.62.1,1.35,0,1.98-1,6.15-.34,12.73-.99,18.8-.11,1.03-.76,1.8-.49,2.97-.65.03-1.33-.03-1.98,0-.22-2.35.34-4.61.49-6.92.31-4.76.83-9.61.99-14.34.02-.74-.01-1.68,0-2.47h1.98Z" style="fill:#fcf6ea;"/><path d="M503.68,451.67c-.58,4.15.33,9.08-.49,13.36-1.81.04-3.64-.05-5.44,0-.16,0-.33,0-.49,0-.33,0-.66,0-.99,0v-14.84c2.05,1.29,5.16,2.41,7.42,1.48Z" style="fill:#32072a;"/><path d="M478.94,452.17l.25,1.98.74-1.48h.49c-.3,2,.22,4.59,0,6.68l5.44-.74c-.15,2.32-.71,4.58-.49,6.92-2.2.1-5.21-.11-6.92,0-.04-4.13-2.4-9.87.49-13.36Z" style="fill:#e53151;"/><path d="M496.26,450.19v14.84c-3,.09-5.94.37-8.9.49-.27-1.17.38-1.94.49-2.97,9.12.66,5.7-5.97,7.42-12.86.34.08.7.32.99.49Z" style="fill:#e53151;"/><path d="M487.35,434.85c.39,2.28-.47,4.65-.49,6.92-.01.79.02,1.73,0,2.47-.97.73-5.69,5.37-5.94,5.94l-5.19-.99.99-1.98c-1.07-.05-2.16.07-3.22,0-.8-.05-1.97-1.35-2.97.25l1.98.74c-2.28,1.06-3.53-.05-3.71,0-.46.12-.7,1.32-2.23,1.48-3.75.42-3.73.47-6.43-2.47,2.03-2.46,1.01-1.76,0-4.45h.49c1.7,4.69,7.62.51,7.91-.74.06-.25.07-4.94,0-5.19,2.37.81,8.79,1,10.39-.74,1.16-1.27,2.37-6.76.25-7.67-2.27-.97-3.3,1.57-4.2-3.96,5.16.18,11.48,5.24,12.37,10.39Z" style="fill:#7d9239;"/><path d="M474.99,424.47c.9,5.53,1.93,2.99,4.2,3.96,2.12.9.91,6.4-.25,7.67-1.6,1.74-8.02,1.55-10.39.74-.39-1.43-.58-.94-.99-1.48-.14-4.58,3.25-6.86,7.42-7.67l-1.98-3.22c.62-.07,1.34-.02,1.98,0Z" style="fill:#77c113;"/><path d="M473.01,424.47l1.98,3.22c-4.17.81-7.56,3.08-7.42,7.67-3.19-4.22-4.44-.95-6.43,1.48-1.43,1.75-5.33,6.16-.99,5.94,1.01,2.7,2.03,2,0,4.45-2.97-3.24-3.51-4.59-1.48-9.15.31-.71,8.99-11.71,9.65-12.12,1.44-.9,3-1.29,4.7-1.48Z" style="fill:#ddec49;"/><path d="M476.47,451.18v14.34c-1.14.08-2.33-.09-3.46,0-1.7-4.27,1.06-10.6-1.48-14.34,1.78.09,2.65-.42,4.95,0Z" style="fill:#a40d3b;"/><path d="M480.92,450.19c-.31.71-.38,1.71-.49,2.47h-.49c.04-.78-.79-.37-.99-.49-.95-.56.22-.5-2.47-.99-2.29-.42-3.17.09-4.95,0-1.38-.07-3.95-.42-4.95-1.48,1.52-.17,1.76-1.37,2.23-1.48.18-.05,1.43,1.06,3.71,0,.45-.21.94-.41.99-.99,1.06.07,2.15-.05,3.22,0l-.99,1.98,5.19.99Z" style="fill:#20152a;"/><path d="M467.57,435.35c.41.54.6.05.99,1.48.07.25.06,4.94,0,5.19-.29,1.25-6.22,5.44-7.91.74-.32-.89.31-4.73.49-5.94,1.99-2.44,3.24-5.71,6.43-1.48Z" style="fill:#57a234;"/><path d="M460.64,442.77h-.49c-4.34.22-.44-4.19.99-5.94-.19,1.2-.82,5.04-.49,5.94Z" style="fill:#fbfedb;"/><path d="M473.5,447.22c-.05.57-.54.78-.99.99l-1.98-.74c.99-1.59,2.17-.3,2.97-.25Z" style="fill:#2b4621;"/><path d="M478.94,452.17c-2.89,3.48-.53,9.23-.49,13.36-.94.06-1.8-.01-1.98,0v-14.34c2.69.49,1.53.43,2.47.99Z" style="fill:#fefdfe;"/><path d="M479.93,452.66l-.74,1.48-.25-1.98c.2.12,1.03-.29.99.49Z" style="fill:#fefdfe;"/><path d="M519.01,465.03c-3.62.04-7.26-.07-10.88,0-.69-4.28.73-9.86.49-13.85,4.23-1.27,6.9-5.03,8.41-8.9l1.98,22.75Z" style="fill:#32072a;"/><path d="M519.01,439.31c.3.11,1.59.32,1.73.49,2.81,3.27.44,20.12,1.24,25.23-.98,0-1.98,0-2.97,0l-1.98-22.75c.24-.62,1.46-3.28,1.48-3.46-.07.52.24.4.49.49Z" style="fill:#0b032e;"/><path d="M495.27,449.2c-.04.15.04.34,0,.49-1.72,6.89,1.7,13.52-7.42,12.86.65-6.07-.02-12.64.99-18.8l6.43,5.44Z" style="fill:#e6715d;"/><path d="M526.43,435.35c.15,1.39,0,2.19-.49,3.46-.24.62-1.41,1.76-1.48,2.23-.25,1.47.13,16.53.49,17.31.63,1.34,5.06.03,1.98,6.68-1.64.02-3.3-.01-4.95,0-.8-5.11,1.57-21.95-1.24-25.23-.15-.17-1.44-.39-1.73-.49-1.18-5.44,3.56-4,7.42-3.96Z" style="fill:#bb1a4e;"/><path d="M544.73,429.91c-1.99,3.87-10.67,7.48-14.34,6.43-.59-2.51,2.37-2.84,3.96-3.96,4.35-.55,6.74-.64,10.39-3.46v.99Z" style="fill:#62053b;"/><path d="M525.93,438.81c.5-1.27.65-2.07.49-3.46,2.07.02,2.58-1.03,2.72-.99.44.14-.17,1.58,1.24,1.98,3.67,1.05,12.36-2.56,14.34-6.43,0,7.66-13.55,7.9-18.8,8.9Z" style="fill:#d9476f;"/><path d="M547.2,407.65l-1.48,1.98c-.13-1.14-2.25-8.37-3.46-10.14-.9-1.32-8.8-8.25-9.65-7.67-2.7,1.85,6.81,9.9,7.67,12.12,4.64,12.03-5.52,22.45-17.31,22.51-.07-.03.21-.66-.25-.99-.14-.1-2.91.09-3.46,0-1.28-.22.03-1.73-1.73-.49-4.35-4.71-9.34-9.85-8.41-16.32,5.32,10.24,15.04,2.45,16.82-5.69,1.3-5.95.77-6.91-3.46-10.63-.38-.33-1.12-.65-1.48-.99-.22-.2-.8-1.12-.99-1.48,11.77-1.64,25.49,5.06,27.2,17.81Z" style="fill:#90a433;"/><path d="M547.2,407.65c.36,2.65-.69,6.27-.49,8.16.1,1.04,2.62,4.84,2.47,6.92s-2.81,4.91-4.45,6.18c-3.65,2.83-6.04,2.91-10.39,3.46-.98.12-3.99,1.07-4.2.99-.99-.37-.4-1.7-1.24-1.98l.99-2.47c8.75.11,16.79-10.91,15.83-19.29l1.48-1.98Z" style="fill:#77c113;"/><path d="M520,389.84c.19.37.77,1.28.99,1.48-3.5,1.44-8.64,4.06-10.88,7.17-.88,1.22-5.12,9.05-.99,8.16-.15.5.09,1.36,0,1.98-.93,6.47,4.06,11.61,8.41,16.32-.72.5-1.47,1.04-1.73,1.98-2.18-2.35-4.21-4.91-6.18-7.42-2.26-2.88-2.4-3.27-4.45-5.44-.51-.54-1.89-1.87-1.98-2.47-.51-3.48,4.01-13.26,6.43-16.08,3.2-3.72,5.53-5.01,10.39-5.69Z" style="fill:#ddec49;"/><path d="M509.12,408.64c.09-.62-.15-1.47,0-1.98,1.91-6.64,10.28-8.91,13.36-14.34,4.23,3.72,4.76,4.68,3.46,10.63-1.77,8.13-11.5,15.93-16.82,5.69Z" style="fill:#c9d041;"/><path d="M545.72,409.63c.96,8.38-7.07,19.4-15.83,19.29-.34,0-6.38-1.32-6.68-1.48-1.24-.69-.2-.97-.25-.99,11.79-.05,21.95-10.47,17.31-22.51-.85-2.22-10.36-10.27-7.67-12.12.85-.58,8.74,6.35,9.65,7.67,1.21,1.77,3.33,9,3.46,10.14Z" style="fill:#5f8027;"/><path d="M522.47,392.32c-3.08,5.44-11.45,7.7-13.36,14.34-4.13.89.11-6.94.99-8.16,2.25-3.11,7.38-5.73,10.88-7.17.37.34,1.1.66,1.48.99Z" style="fill:#ddec49;"/><path d="M528.9,431.39c.83.28.24,1.61,1.24,1.98.22.08,3.23-.87,4.2-.99-1.59,1.11-4.55,1.45-3.96,3.96-1.4-.4-.79-1.84-1.24-1.98-.14-.04-.65,1.01-2.72.99-3.86-.04-8.6-1.48-7.42,3.96-.25-.09-.56.03-.49-.49.18-1.63-.48-7.32-.99-8.9,2.51,2.62,9.63.9,11.38,1.48Z" style="fill:#32072a;"/><path d="M498.23,420.51c-.25.68-.48.46-.49.49-3.15,6.46-7.53,13.42-8.9,20.77h-1.98c.03-2.28.89-4.65.49-6.92.62-.06,1.18.34,1.48-.49,1.09-2.99,1.3-7.38,2.97-11.13.78-1.75,2.75-4.6,3.96-6.18,2.3.63,3.63.38,2.47,3.46Z" style="fill:#fafda7;"/><path d="M503.18,411.61c.09.61,1.47,1.94,1.98,2.47-.75.03-1.17,1.21-1.48,1.48-1.9,1.63-3.78,3.01-5.44,4.95,1.16-3.09-.17-2.83-2.47-3.46,1.88-2.46,3.69-5.58,7.42-5.44Z" style="fill:#ddec49;"/><path d="M505.65,435.84c-1.33,4.58-6.05,6.7-10.39,6.92-.56-.8-2.18-1.42-2.47-2.72-1.32-5.83,3.38-13.55,4.95-19.04.02-.03.24.19.49-.49,1.66-1.94,3.54-3.32,5.44-4.95,2.39,5.46,3.65,14.53,1.98,20.28Z" style="fill:#aad429;"/><path d="M495.27,442.77c.51.74,2.5,2.54,2.47,2.72-.04.24-1.61.48-2.47,3.71l-6.43-5.44c.1-.63-.12-1.36,0-1.98,1.37-7.35,5.76-14.32,8.9-20.77-1.56,5.5-6.26,13.22-4.95,19.04.29,1.3,1.92,1.92,2.47,2.72Z" style="fill:#ddec49;"/><path d="M517.52,424.96c1.76-1.23.46.28,1.73.49.55.09,3.32-.1,3.46,0,.46.33.18.96.25.99.05.02-.99.3.25.99.3.17,6.34,1.48,6.68,1.48l-.99,2.47c-1.75-.58-8.87,1.13-11.38-1.48-.19-.59-1-1.74-1.24-2.47-.5,1.29-1.55,7.31-3.46,8.41-2.31,1.32-3.44-.34-4.7-.49l1.48-15.83c1.98,2.51,4,5.07,6.18,7.42.26-.93,1.01-1.48,1.73-1.98Z" style="fill:#7db014;"/><path d="M508.62,451.18c.23,3.99-1.18,9.57-.49,13.85-1.64.03-3.31-.04-4.95,0,.82-4.27-.09-9.21.49-13.36.11-.8,1.17-4.48,1.48-5.44l1.98-.49c.96,1.52,1.36,3.31,1.48,5.44Z" style="fill:#c62a45;"/><path d="M509.61,419.52l-1.48,15.83c-.87-.11-1.44.8-2.47.49,1.67-5.75.41-14.82-1.98-20.28.32-.27.73-1.45,1.48-1.48,2.05,2.17,2.19,2.57,4.45,5.44Z" style="fill:#77c113;"/><path d="M517.52,429.91c.51,1.58,1.17,7.27.99,8.9-.02.19-1.24,2.84-1.48,3.46-1.51,3.88-4.17,7.63-8.41,8.9-.12-2.13-.52-3.92-1.48-5.44-.18-.29.03-1.64-1.24-1.48-1.04.56-.55,1.39-.74,1.98-.32.96-1.37,4.64-1.48,5.44-2.26.92-5.36-.2-7.42-1.48-.28-.18-.65-.42-.99-.49.04-.16-.04-.34,0-.49.87-3.23,2.44-3.47,2.47-3.71.03-.18-1.96-1.98-2.47-2.72,4.34-.22,9.06-2.34,10.39-6.92,1.03.3,1.6-.6,2.47-.49,1.26.15,2.39,1.81,4.7.49,1.92-1.09,2.97-7.12,3.46-8.41.24.73,1.05,1.88,1.24,2.47Z" style="fill:#7db014;"/><path d="M507.14,445.74l-1.98.49c.2-.59-.3-1.42.74-1.98,1.26-.15,1.05,1.19,1.24,1.48Z" style="fill:#5f8027;"/><path d="M571.44,382.92c-1.31.07-6.37-.52-6.92.74-.48,9.15.45,18.34.49,27.45.06,10.91.57,22.84,0,33.64-.03.59,0,1.41,0,1.48-.12,1.48-.26,4.91-.49,5.94-.04.16-1.65-.08-.99,2.47-1.89.48-5.42,4.92-6.43,1.73-1.33-4.22,1.49-20.27-.49-23.5-.02-.03-.58.08-.49-.49.94-.93.38-2.72.49-3.96,1.69-18.74-1.31-39.91,0-58.86-.09-.57.48-.46.49-.49l14.34,13.85Z" style="fill:#f1d954;"/><path d="M563.53,454.64c.69-.18,7.14-.39,7.42.25l-.49,9.65c-4.87-.01-9.79-.48-14.34,1.48.15-.93-.54-1.08-.49-1.48,1.18-10.46,1.17-20.97.99-31.66,1.99,3.22-.84,19.27.49,23.5,1.01,3.19,4.55-1.25,6.43-1.73Z" style="fill:#ffc449;"/><path d="M775.23,367.09l-.99,97.94c-.47,0-.52.48-.99.49-2.06.05-4.19.45-5.94.49l-.49-84.83c-2.79-.05-5.67-.58-8.41-.74,3.87-3.62,8.06-6.09,11.87-9.89,1-1,3.97-2.86,4.45-3.96.57-.08.43.39.49.49Z" style="fill:#f4b454;"/><path d="M581.33,446.23c-.29,1.43.7,6.78-.74,7.42-.66.29-12.91.19-14.34,0s-1.12-.14-1.73-1.48c.23-1.02.37-4.45.49-5.94h16.32Z" style="fill:#ffc449;"/><path d="M628.32,445.24c-.17,1.22-.5.93-.49.99-8.17.16-16.59.56-24.73.49-.08,0-.08-.48-1.48-.49-6.09-.04-12.21,0-18.3,0h-18.3c0-.07-.03-.89,0-1.48l63.31.49Z" style="fill:#641627;"/><path d="M696.58,465.03c-7.93,0-15.87.4-23.74.49,2.53,2.96-.17-10.76,1.73-10.88h22.26l-.25,10.39Z" style="fill:#ffa465;"/><path d="M672.84,465.52c-1.64.02-3.3-.01-4.95,0-2.3.02-4.29.48-6.43.49.04-.23.93-.96.99-.99.33-.16,1.14.27,1.48-.25.15-.23-.13-.95,0-1.24,1.2-2.66.43-6.9.99-8.16.44-.98,7.05-1.02,7.67-.74,2.01.89-.11,10.47.25,10.88Z" style="fill:#f7925f;"/><path d="M594.69,377.97c3.74,1.03-.39,8.06,5.69,5.44,3.7-1.6-5.94-4.47,4.7-5.44,14.64-1.34,33.35.02,48.47,0-.53,5.54.43,4.77,5.19,3.96l.25,2.97c-2.53.03-2.08-.5-2.23-.49-.38,0,.01.98-.74.99.1-1.98-3.51.16-5.19-.49l-.49-1.48-25.72,1.48c-.91-.65-.95-1.02-1.24-1.98-.06-.21.7-3.78-.25-4.45-2.21-1.57-5.04.36-6.18,2.47-.72,1.34-.27,2.37-.74,2.97-1.48,1.85-28.08.34-32.15.99-.45-.29-.24-1.47-.25-1.98,0-.34.54-4.8.74-4.95.41-.29,9.55-.16,10.14,0Z" style="fill:#140002;"/><path d="M605.08,377.97c-10.64.97-1,3.84-4.7,5.44-6.08,2.62-1.95-4.41-5.69-5.44.89.36,1.58-.5,1.98-.49,2.68.05,5.63.98,8.41.49Z" style="fill:#3b0b09;"/><path d="M627.83,446.23c.02,1.5,1.17,3.46,0,5.44-.87.22-.92.98-.99.99-.06,0-.34.93-.74.99-2.01.29-21.24.45-22.26,0-1.42-.63-.47-5.55-.74-6.92,8.15.07,16.56-.33,24.73-.49Z" style="fill:#ffc449;"/><path d="M601.61,446.23l-.25,7.42h-18.3l.25-7.42c6.09,0,12.21-.04,18.3,0Z" style="fill:#ffc449;"/><path d="M626.84,455.13c-.15,3.24.5,6.78-.49,9.89-4.06-.01-8.08,0-12.12-.49-3.92-12.84,3.16-10.21,12.61-9.4Z" style="fill:#ffa465;"/><path d="M664.43,446.23c.15,1.74-.95,4.39-.99,5.94-.44.02-.5-.43-.99-.49-1.47-.21-1.41.49-1.48.49-2.84.19-5.56-.53-8.41-.49l.49-5.94c3.77.17,7.6.32,11.38.49Z" style="fill:#ffc449;"/><path d="M583.31,446.23l-.25,7.42h18.3l.25-7.42c1.41.01,1.41.49,1.48.49.27,1.38-.68,6.29.74,6.92,1.02.45,20.25.29,22.26,0,.4-.06.68-.98.74-.99.79.29.04,1.64,0,2.47-9.45-.81-16.53-3.44-12.61,9.4,4.04.49,8.06.48,12.12.49,2.19,0,6.87.79,8.41-.99,7.98.42,16.27.1,24.24-.49-.03.84-.34,1.95-.25,1.98.39.12,2.66-.61,2.72-.74.25-.58-1.21-10.77-.49-12.61.08,0,.01-.7,1.48-.49v13.36c-.06.03-.95.76-.99.99-2.29.01-4.41.49-6.43.49-16.3.06-32.64-.7-48.97-.99-11.84-.21-23.83-.96-35.61-.99l.49-9.65c-.28-.64-6.73-.42-7.42-.25-.66-2.55.95-2.31.99-2.47.61,1.34.29,1.29,1.73,1.48s13.69.29,14.34,0c1.44-.64.45-5.99.74-7.42h1.98Z" style="fill:#faeed4;"/><path d="M571.69,454.64h19.29l.74,9.65c-9.21-1.04-24.17,5.73-20.03-9.65Z" style="fill:#ec8a3c;"/><path d="M592.46,454.64h19.29c1.1.49.88,6.49.74,7.67-.05.39-.9.09-.99.49-.2.97,1.13.75.99.99-.51.88-18.09,1.16-19.04.74-1.19-.52-1.65-9.42-.99-9.89Z" style="fill:#ffa465;"/><path d="M663.44,452.17c-.09,3.3,1.08,7.81.49,11.38-.13.29.15,1.01,0,1.24-.34.52-1.16.09-1.48.25v-13.36c.49.07.55.52.99.49Z" style="fill:#32072a;"/><path d="M623.38,382.92c-2.16.66-7.18,1.7-6.43-1.98,1.14-2.11,3.97-4.04,6.18-2.47.95.67.18,4.24.25,4.45Z" style="fill:#5f221a;"/><path d="M718.84,444.75c-.16.35.08,1.09-.74,1.48-2.55-.46-5.21.4-7.67.49-.16,0-.33,0-.49,0-8.1.25-16.53-.89-24.73-.49-.48.02-1-.19-.99.49l-.99-.49c-5.42-.14-10.9.19-16.32,0-.49-.02-.99.02-1.48,0-.33-.01-.66.02-.99,0-3.78-.18-7.61-.33-11.38-.49-.07,0-.22-.95-.99-.99v-.99c22.25.06,44.54.36,66.78.99Z" style="fill:#4b0d20;"/><path d="M719.83,379.46v2.97c-3.21-1-16.37,2.71-13.36-3.46,4.51.24,8.81.04,13.36.49Z" style="fill:#f1d954;"/><path d="M665.42,446.23c-.71,1.19-.65,6.45.25,6.92.8.43,17.64.56,18.05-.25.22-.43.16-5.12.49-6.18-.02-.68.51-.47.99-.49.2,1.18-.38,6.48.25,6.92.99.7,23.25.7,24.24,0,.62-.44.05-5.3.25-6.43.16,0,.33,0,.49,0-1.26,10.1,6.66,4.91,7.91,6.68.43.6-.32,9.5,0,11.13-2.79-.45-16.92.49-21.76.49l.25-10.39h-22.26c-1.9.12.8,13.85-1.73,10.88-.35-.41,1.76-9.99-.25-10.88-.61-.27-7.23-.24-7.67.74-.56,1.26.21,5.5-.99,8.16.59-3.56-.58-8.08-.49-11.38.04-1.55,1.14-4.2.99-5.94.33.02.66-.01.99,0Z" style="fill:#e5d7b5;"/><path d="M699.8,454.64h17.31l.25,9.65-17.06.25c-.87-.38-1.55-9.49-.49-9.89Z" style="fill:#ffa465;"/><path d="M709.94,446.73c-.2,1.13.37,5.99-.25,6.43-.99.7-23.25.7-24.24,0-.62-.44-.05-5.75-.25-6.92,8.2-.39,16.63.75,24.73.49Z" style="fill:#ffc449;"/><path d="M666.9,446.23c-.22,1.49,1.32.96,2.23.99,3.91.13,7.96.11,11.87,0,.9-.03,2.44.5,2.23-.99l.99.49c-.34,1.06-.27,5.75-.49,6.18-.42.81-17.25.68-18.05.25-.89-.48-.96-5.73-.25-6.92.49.02.99-.02,1.48,0Z" style="fill:#f4b454;"/><path d="M705.49,377.97c.9,1.39-1.14,4.51-.99,4.7.68.81,2.74-.83,1.24,2.23-15.58.12-31.17-.16-46.74,0l-.25-2.97c-4.76.81-5.72,1.58-5.19-3.96,17.02-.03,35.04-.74,51.94,0Z" style="fill:#140002;"/><path d="M652.07,444.75c.77.04.92.99.99.99l-.49,5.94c-4.16.06-22.68-.51-24.73,0,1.17-1.98.02-3.94,0-5.44,0-.06.32.23.49-.99.02-.16,0-.33,0-.49,7.88.29,15.87-.39,23.74,0Z" style="fill:#f76a7d;"/><path d="M651.57,443.76c.16,0,.33,0,.49,0v.99c-7.87-.39-15.86.29-23.74,0v-.99c7.74,0,15.51-.02,23.25,0Z" style="fill:#ef5171;"/><path d="M652.56,451.67c2.85-.04,5.57.69,8.41.49-.71,1.85.74,12.03.49,12.61-.06.13-2.33.87-2.72.74-.09-.03.21-1.14.25-1.98.06-1.51,1.49-8.13-.25-8.9l-28.69-.49-.74,9.15c.41,1.2,4.36.69,5.44.74-1.54,1.78-6.22,1-8.41.99,1-3.12.34-6.66.49-9.89.04-.84.79-2.18,0-2.47.07,0,.12-.77.99-.99,2.06-.51,20.57.06,24.73,0Z" style="fill:#fefdfe;"/><path d="M658.99,463.54c-7.96.6-16.26.91-24.24.49-1.08-.06-5.03.46-5.44-.74l.74-9.15,28.69.49c1.74.77.31,7.39.25,8.9Z" style="fill:#40114e;"/><path d="M631.04,455.13l27.2.49c1.02.3.3,3.33,0,3.46-2.35,1.04-20.66-.23-24.48-.74l23.5-1.24h-23.74c-1.33.59-.83,4.54,0,5.44.6-.27-.29-2.41.99-2.97,1.07-.46,22.18-.47,23.25,0s.68,2.26.74,3.22c-3.74-.3-25.82,1.2-27.45.25-.46-.27-1.54-7.03,0-7.91Z" style="fill:#e7e5ed;"/><path d="M683.23,446.23c.22,1.48-1.32.96-2.23.99-3.91.11-7.96.13-11.87,0-.9-.03-2.44.5-2.23-.99,5.42.19,10.9-.14,16.32,0Z" style="fill:#e7c035;"/><path d="M560.56,366.1c1.72,4.97,7.73,5.07,8.9,0,1.58,4.29,8,5.57,9.4.99,3.96,2.59,6.3,3.68,10.39.49,1.31,2.7,4.61,2.64,6.92,1.48l.49,8.41c-.4,0-1.09.86-1.98.49-.59-.16-9.73-.29-10.14,0-.2.14-.75,4.61-.74,4.95-4.1.16-8.27-.21-12.37,0l-14.34-13.85c.51-.94,2.21-2.88,3.46-2.97Z" style="fill:#9e2e20;"/><path d="M726.26,366.59c.91,4.02,6.21,4.62,8.41,1.48,4.18,1.78,7.4,2.37,10.88-.99.79,2.57,4.13,2.6,5.94,2.47,2.14-.15,2.86-.84,4.95-.99,1.73-.13,6.42,3.17,8.41-1.48l5.44,3.46c-3.81,3.81-8,6.27-11.87,9.89-11.94-.72-24.18.95-36.11-.49,0-.16-.01-.33,0-.49.04-.65-.05-1.33,0-1.98.12-1.45.4-7.52.49-7.91.17-.68,2.42-3.02,3.46-2.97Z" style="fill:#93391a;"/><path d="M636.73,367.09c.07-.1-.07-.58.49-.49,1.11,4.38,7.97,4.48,9.89-.49,4.13,7.77,6.63,2.1,8.9,1.48.13-.04.35-.01.49,0,.82.07,7.14,5.5,9.89-.49,1.97,3.25,8.71,3.3,9.89,0,3.18,3.86,7.77,3.26,10.39-.99.72,3.27,3.54,4.71,6.68,3.46.52-.21,1.6-1.91,1.73-1.98.36-.19.74-.52.99-.49,1.02.11,6.6,6.9,9.89-.49.95-.3.89.42.99.49,4.22,5.71,7.49,10.59,15.33,10.39-.05.65.04,1.33,0,1.98-.73-.43-2.13.03-2.47,0-4.55-.45-8.84-.26-13.36-.49-.07,0,.56-.92-.99-.99-16.9-.74-34.92-.03-51.94,0-15.12.02-33.83-1.34-48.47,0-2.78.48-5.72-.44-8.41-.49l-.49-8.41c.99-.5,1.68-2.03,2.97-1.98,2.14,3.92,4.23,2.14,5.44,2.97,1.75,1.19,2.7,5.48,7.67,4.45,2.72-.56,1.63-3.33,2.23-4.45s1.94-2.26,2.97-2.97c1.41,4.13,8.71,3.23,10.39-.99,1.15,4.81,6.11,5.18,8.9.99Z" style="fill:#ffa465;"/><path d="M722.8,369.56c-.1.39-.37,6.47-.49,7.91-7.84.2-11.11-4.68-15.33-10.39,3.63,2.86,5.68,5.4,8.9-.49.7,2.4,4.67,4.38,6.92,2.97Z" style="fill:#93391a;"/><path d="M744.06,323.07c-1.05,0-2.58-.93-3.95-.5.03-.84.08-4.71-.25-4.94l-151.36-.5-2.23.74c0,1.57.01,3.14,0,4.7h-3.46v-.49c0-1.39-.74-7.45.25-7.92,11.13-.72,22.23-1.63,33.39-1.98,3.29-.1,6.94.08,10.38,0h51.94c7.03.04,14.2.43,21.27.5,14.58.15,29.19-.11,43.78,0,.48.34.23,8.93.24,10.39Z" style="fill:none;"/><path d="M749.5,339.88c.06.44-.13.44-.49.5-1.1.18-1.9-.42-.99.99-.7-.38-6.3-1.31-6.93,0-.04-.02-.29.11-.98,0,.09-1.02-1.47-4.22-1.49-4.45-.28-4.1,1.31-10.41,1.49-14.35,1.37-.43,2.9.5,3.95.5.04,5.55-.45,11.02-.49,16.57.35.5,4.93.2,5.93.24Z" style="fill:#d15145;"/><path d="M630.05,337.41c-.65.45.15,2.51-.5,2.97-1.25.88-25.96-1.61-30.66-.5-.21.05-.43,2.03-3.22,1.98-.07.02-.19.56-.99.99-2.17-1.86-10.6-.46-12.86.5,2.15-1.68.89-2.6.99-3.47.69-6.11.06-11.31,0-17.31h3.46c0,1.43,1.14,12.78,1.49,13.36,1.48,2.45,50.92.17,57.38.99-2.13.07-14.47.06-15.09.49Z" style="fill:#ef5171;"/><path d="M572.43,339.88c.33,0,.66,0,.99,0-4.74,3.53-9.65,6.96-14.1,10.88-3.01,2.65-5.34,6.3-8.16,8.9-.8.73-1.89,2.36-2.23,2.47-2.67.93-7.58-2.03-8.16,2.47.21-1.41-.51-2.35-.49-2.47.6-3.78,2.5-4.83,5.19-7.42,5.95-5.73,13.22-9.82,20.03-14.34,2.34-.1,4.59-.48,6.92-.49Z" style="fill:#fefdfe;"/><path d="M561.05,340.38c1.45-.13,2.99.06,4.45,0-6.81,4.53-14.09,8.61-20.03,14.34-2.69,2.59-4.6,3.64-5.19,7.42l-9.89-.49c-.17-1.19.54-.91.49-1.48,5.43-4.83,11.89-8.37,17.56-12.86,7.06-5.59,1.62-5.94,12.61-6.92Z" style="fill:#e94b90;"/><path d="M551.16,359.67c-.65.87-.46,1.51-.49,2.47s-.19,4.48,0,4.95c-2.98,3.38-8.71,4.51-9.89-.99.12-.34-.07-1.02,0-1.48.58-4.51,5.49-1.55,8.16-2.47.34-.12,1.43-1.74,2.23-2.47Z" style="fill:#e1e4b8;"/><path d="M540.28,362.14c-.02.12.7,1.07.49,2.47-.07.47.12,1.14,0,1.48-2.16,6.1-9.32,3.19-10.39-4.45l9.89.49Z" style="fill:#99104a;"/><path d="M560.06,362.14c0,.2.43,3.77.49,3.96-1.25.09-2.95,2.03-3.46,2.97-.02.03-.58-.08-.49.49-.94.02-5.75-2.03-5.94-2.47s-.03-4.01,0-4.95h9.4Z" style="fill:#99104a;"/><path d="M762.86,341.37c2.57,1.22,20.97,16.55,21.76,18.8-1.17,3.74-6.85,1.47-9.89,1.48-1.54-6.33-18.82-19.9-25.72-21.27.36-.06.55-.05.49-.49,4.67.21,8.94-.62,13.36,1.48Z" style="fill:#fefdfe;"/><path d="M785.12,353.24c1.77,1.4,9.63,6.85,9.89,8.41l-9.89.49c-.17-.56-.2-1.16-.49-1.98-.8-2.24-19.2-17.58-21.76-18.8,2.37-.66,3.19-1.38,5.69-.49,1.22.43,14.42,10.67,16.57,12.37Z" style="fill:#e94b90;"/><path d="M785.12,362.14c.33,1.04-.33,3.43,0,4.45-3.03,3.88-6.95,4.9-9.89.49-.07-.1.07-.58-.49-.49.58-1.31.35-3.49,0-4.95,3.04-.01,8.73,2.26,9.89-1.48.29.82.32,1.42.49,1.98Z" style="fill:#e1e4b8;"/><path d="M795.01,361.65c1.04,6.16-8.03,10.65-9.89,4.95-.33-1.02.33-3.41,0-4.45l9.89-.49Z" style="fill:#99104a;"/><path d="M579.35,340.38c-4.16,5.56-18.52,14.72-19.29,21.27-.02.16,0,.33,0,.49h-9.4c.03-.97-.15-1.61.49-2.47,2.83-2.6,5.15-6.25,8.16-8.9,4.44-3.92,9.36-7.35,14.1-10.88,1.68,0,3.75.61,5.94.49Z" style="fill:#e94b90;"/><path d="M582.82,339.88c-.1.86,1.16,1.78-.99,3.46-1.94.81-6.45,5.15-7.91,6.92-.72.88-1.02,1.75-1.48,2.47-.61.95-1.44,1.99-1.98,2.97-3.59,6.61.2,7.45-10.39,5.94.77-6.55,15.13-15.71,19.29-21.27,1.23-.06,2.26-.36,3.46-.49Z" style="fill:#fefdfe;"/><path d="M569.46,361.65c-.2,1.95-.77,2.36,0,4.45-1.18,5.07-7.18,4.97-8.9,0-.07-.19-.5-3.76-.49-3.96,0-.16-.02-.33,0-.49,10.59,1.52,6.79.67,10.39-5.94-.43,2-.78,3.89-.99,5.94Z" style="fill:#e5d7b5;"/><path d="M774.73,366.59c-.48,1.1-3.45,2.96-4.45,3.96l-5.44-3.46c.46-1.07.58-3.73.49-4.95,3.09.52,6.4-.48,9.4-.49.35,1.45.58,3.64,0,4.95Z" style="fill:#99104a;"/><path d="M749.01,340.38c6.9,1.37,24.18,14.94,25.72,21.27-3,.01-6.31,1.01-9.4.49-.09-1.21-.15-1.39-.49-2.47-.4-1.24-15.72-17.71-16.82-18.3-.91-1.41-.11-.81.99-.99Z" style="fill:#e94b90;"/><path d="M711.92,336.42c.06.02.28.85.74.99l25.97-.49c.02.23,1.58,3.43,1.48,4.45-2.3-.37-6.86-.08-9.4,0-2.05.06-4.12-.04-6.18,0l.74,2.97c-3.19-2.89-4.54-4.05-9.4-2.47l-.99.25c1.61,7.45,8.46,12.28,10.39,19.54-3.33.63-6.07.47-9.4.49-.43-1.81.32-1.66-.99-3.96-.62-3.62-2.34-6.68-3.96-9.89-3.63-7.23-1.7-7.55-11.62-6.92-.28.14,1.94,4.78,2.23,5.44l-8.41.99c-.34-1.18-1.43-6.1-2.23-6.43-1.27-.53-6.15.39-7.91,0-.97.62,1,4.51,1.24,5.44l-8.9.99c-.29-1.96.27-5.81-1.48-6.43-.32-.11-6.37-.14-6.68,0-1.26.56-.66,5.16-.74,6.43-.02.33,0,.66,0,.99-.06,2.86.52,5.94.49,8.41-.01,1.47.06,2.98,0,4.45h-10.39c0-4.84-.28-10.05,0-14.84,2.33,2.9,4.76,1.84,8.16,1.98.1-1.15,1-6.57,0-6.92-2.55-.09-5.13.12-7.67,0-.42-.02-.53-.49-1.48-.49-2.22-.01-4.45,0-6.68,0-.61.43-.58,4.99-.74,5.94-.98,5.82-.17,9.01-.49,14.34-.01.16.01.33,0,.49h-.99c-.94-8.2,3.59-14.63-7.42-15.83.12-.93,1.14-3.96.74-4.45-11.59-3.56-9,5.27-11.62,12.86-.15-6.96-.84-4.92-5.94-9.4.19-.59,1.41-3.08.74-3.46-9.57-2.75-11.71,6.52-13.6,13.85-.56,2.17-1.37,4.13-1.48,6.43l-9.89-.49c.69-6.06,6.87-13.36,9.4-19.04-.37-.48-7.12-.29-7.91.25-.95-.65-2.96-1.23-3.96-.99,2.79.04,3-1.93,3.22-1.98,4.7-1.11,29.41,1.38,30.67.49.64-.45-.15-2.51.49-2.97s12.96-.42,15.09-.49c22.23-.76,44.66,1.09,66.78-.49Z" style="fill:#d9476f;"/><path d="M748.02,341.37c1.1.59,16.42,17.06,16.82,18.3-.87,3.86-5.86,2.34-9.4,2.47-1.15-7.15-3.25-10.84-8.41-15.83-.67-.65-5.57-4.82-5.94-4.95.62-1.3,6.22-.38,6.92,0Z" style="fill:#fefdfe;"/><path d="M740.11,341.37c.7.11.94-.02.99,0,.36.13,5.26,4.29,5.94,4.95l.25,1.48c-6.27-.39-12.08-1.64-16.57-6.43,2.54-.08,7.09-.37,9.4,0Z" style="fill:#f7adca;"/><path d="M599.63,342.85c-2.02,1.36-10.54,16.36-10.88,19.29-3.47-.03-6.96.09-10.39-.49.31-4.21.38-3.86,2.97-6.92.54-.65,1.73-1.68,2.47-2.47,1.67-1.77,8.97-8.37,10.88-9.4.8-.43.92-.97.99-.99.99-.24,3.01.33,3.96.99Z" style="fill:#da2b7c;"/><path d="M594.69,342.85c-1.91,1.03-9.21,7.63-10.88,9.4l-9.89-1.98c1.46-1.77,5.98-6.11,7.91-6.92,2.26-.95,10.69-2.35,12.86-.49Z" style="fill:#f5c7d5;"/><path d="M581.33,354.72c-2.59,3.07-2.66,2.72-2.97,6.92-.01.16.02.33,0,.49l-8.9-.49c.21-2.05.56-3.94.99-5.94.53-.98,1.37-2.02,1.98-2.97l8.9,1.98Z" style="fill:#ee699c;"/><path d="M583.81,352.25c-.75.79-1.93,1.83-2.47,2.47l-8.9-1.98c.46-.73.76-1.6,1.48-2.47l9.89,1.98Z" style="fill:#f7adca;"/><path d="M578.36,362.14c-.06.6.94,3.48.49,4.95-1.4,4.58-7.82,3.3-9.4-.99-.77-2.09-.2-2.5,0-4.45l8.9.49Z" style="fill:#99104a;"/><path d="M588.75,362.14c-.06.52.38,5.2.49,5.44-4.08,3.19-6.43,2.1-10.39-.49.45-1.47-.55-4.35-.49-4.95.02-.16-.01-.33,0-.49,3.43.59,6.92.46,10.39.49Z" style="fill:#a40d3b;"/><path d="M598.15,362.14c-.06,1.15.45,3.95.99,4.95-1.29-.06-1.97,1.48-2.97,1.98-2.31,1.15-5.62,1.21-6.92-1.48-.12-.25-.56-4.92-.49-5.44,3.11.03,6.27-.07,9.4,0Z" style="fill:#d0768c;"/><path d="M725.27,361.65c.31-.06.67.03.99,0,.04.15-.04.34,0,.49.3,1.17-.28,3.23,0,4.45-1.04-.06-3.29,2.29-3.46,2.97-2.25,1.41-6.23-.57-6.92-2.97-.32-1.09.28-3.26,0-4.45,3.33-.02,6.07.13,9.4-.49Z" style="fill:#831d5c;"/><path d="M745.55,362.14c.25,1.35-.35,3.81,0,4.95-3.49,3.36-6.7,2.77-10.88.99,1.46-2.08.96-3.4.99-5.94,3.29.01,6.6.03,9.89,0Z" style="fill:#99104a;"/><path d="M765.34,362.14c.09,1.22-.04,3.88-.49,4.95-1.99,4.65-6.68,1.36-8.41,1.48.24-.66-.95-2.26-.99-2.47-.2-1.21.19-2.75,0-3.96,3.54-.13,8.53,1.39,9.4-2.47.35,1.08.41,1.26.49,2.47Z" style="fill:#e1e4b8;"/><path d="M735.16,362.14c.16,0,.33,0,.49,0-.03,2.54.47,3.86-.99,5.94-2.2,3.13-7.5,2.53-8.41-1.48-.28-1.22.3-3.29,0-4.45,2.94-.17,5.94-.01,8.9,0Z" style="fill:#d0768c;"/><path d="M755.44,362.14c.19,1.21-.2,2.75,0,3.96l-3.96,3.46c-1.8.13-5.15.1-5.94-2.47-.35-1.13.25-3.59,0-4.95,3.28-.03,6.61.12,9.89,0Z" style="fill:#62053b;"/><path d="M756.43,368.57c-2.09.15-2.81.84-4.95.99l3.96-3.46c.03.21,1.23,1.82.99,2.47Z" style="fill:#f59077;"/><path d="M730.71,341.37c4.49,4.79,10.3,6.04,16.57,6.43l-.25-1.48c5.16,4.99,7.26,8.68,8.41,15.83-3.28.12-6.61-.03-9.89,0s-6.6.01-9.89,0c-.16,0-.33,0-.49,0,.29-5.21-6.03-14.3-9.89-17.81l-.74-2.97c2.06-.04,4.13.06,6.18,0Z" style="fill:#da2b7c;"/><path d="M639.2,346.31c-.79,6.31-1.66,9.25-1.48,15.83.02.78-.89,2.9-.49,4.45-.57-.08-.43.39-.49.49l-.74-4.95-8.16-.49c-.09-2.37.55-4.55.49-6.92,2.63-7.59.03-16.42,11.62-12.86.4.49-.63,3.52-.74,4.45Z" style="fill:#fcf6ea;"/><path d="M725.27,344.34c3.86,3.5,10.18,12.6,9.89,17.81-2.96-.01-5.97-.17-8.9,0-.04-.15.04-.34,0-.49-1.96-7.4-7.2-12.95-10.39-19.79,4.86-1.57,6.21-.42,9.4,2.47Z" style="fill:#e7bfbb;"/><path d="M598.15,361.65c-.02.16,0,.33,0,.49-3.13-.07-6.29.03-9.4,0,.34-2.93,8.86-17.93,10.88-19.29.79-.53,7.54-.73,7.91-.25-2.53,5.68-8.7,12.99-9.4,19.04Z" style="fill:#e7bfbb;"/><path d="M685.21,349.28c.55,2.62,1.07,5.76,1.48,8.41.21,1.36-.18,3.06,0,4.45-3.45-.08-6.94,0-10.39,0-.16,0-.33,0-.49,0,.55-4.86.22-9.54-.49-14.34l8.9-.99c.17.68.85,1.82.99,2.47Z" style="fill:#da2b7c;"/><path d="M657.01,341.86c.33,1.72-.4,3.31-.49,4.95-.28,4.79,0,10,0,14.84v5.94c-.14-.01-.37-.04-.49,0l-.25-5.44-8.16-.49c.32-5.34-.48-8.52.49-14.34,6.35,1.51,8.8,1.08,7.42-5.94.95,0,1.06.47,1.48.49Z" style="fill:#fcf6ea;"/><path d="M701.53,346.81c.3.69,1.74,2.33,1.98,2.97.75,1.97,2.1,5.49,2.47,7.42.25,1.31.49,3.6.49,4.95,0,.16,0,.33,0,.49-1.68-1.14-8.38.03-9.15-.49s.65-3.17-1.24-2.97c-.32-3.32-1.5-6.71-2.47-9.89-.03-.16.04-.34,0-.49-.1-.43-.37-.55-.49-.99l8.41-.99Z" style="fill:#c63466;"/><path d="M628.32,354.72c.05,2.37-.59,4.56-.49,6.92,0,.16,0,.33,0,.49-3.46,0-6.93-.01-10.39,0,.05-5.22,1.51-7.32,2.97-11.87.56-1.74,1.54-3.57,1.98-4.95,5.09,4.48,5.79,2.44,5.94,9.4Z" style="fill:#da2b7c;"/><path d="M646.62,362.14h-8.9c-.17-6.58.7-9.52,1.48-15.83,11.01,1.19,6.48,7.63,7.42,15.83Z" style="fill:#da2b7c;"/><path d="M622.39,345.33c-.44,1.37-1.42,3.2-1.98,4.95-1.53.02-2.74,5.26-3.22,5.44-.36.13-6.33-1.44-7.67,0,1.89-7.33,4.03-16.6,13.6-13.85.67.38-.55,2.87-.74,3.46Z" style="fill:#f5c7d5;"/><path d="M675.31,347.8c.72,4.8,1.05,9.49.49,14.34-2.94,0-5.94-.01-8.9,0,.01-.16,0-.33,0-.49.06-1.47-.01-2.98,0-4.45,4.06-2.3,10.19.66,8.41-6.68-.96-3.97-5.41-1.94-8.9-1.73,0-.33-.02-.66,0-.99h7.67l-.25-6.43c1.75.62,1.19,4.47,1.48,6.43Z" style="fill:#e5d7b5;"/><path d="M666.9,361.65c0,.16.01.33,0,.49-.08,1.05-.13,4.16-.49,4.95-2.75,6-9.07.56-9.89.49v-5.94h10.39Z" style="fill:#99104a;"/><path d="M646.62,362.14h.99c-.06.81-.28,3.4-.49,3.96-1.92,4.98-8.78,4.87-9.89.49-.39-1.55.52-3.67.49-4.45h8.9Z" style="fill:#99104a;"/><path d="M666.9,357.2c.02-2.47-.56-5.54-.49-8.41,3.49-.21,7.94-2.23,8.9,1.73,1.79,7.34-4.35,4.38-8.41,6.68Z" style="fill:#fefdfe;"/><path d="M620.41,350.27c-1.46,4.55-2.92,6.65-2.97,11.87-3.01.01-6.6-.55-9.4.49,0-.16,0-.33,0-.49.12-2.3.92-4.26,1.48-6.43,1.33-1.44,7.31.13,7.67,0,.48-.18,1.69-5.42,3.22-5.44Z" style="fill:#f8e1d4;"/><path d="M693.12,347.8c.13.44.39.56.49.99l-8.41.49c-.14-.65-.82-1.79-.99-2.47-.24-.93-2.21-4.82-1.24-5.44,1.77.39,6.65-.53,7.91,0,.8.33,1.88,5.25,2.23,6.43Z" style="fill:#f8e1d4;"/><path d="M608.04,362.14c0,.16,0,.33,0,.49-.02,1.05-.22,3.73,0,4.45l-3.46,2.97c-1.21-.83-3.31.96-5.44-2.97-.54-.99-1.05-3.79-.99-4.95,0-.16-.02-.33,0-.49l9.89.49Z" style="fill:#7a073e;"/><path d="M710.93,348.29c-2.06,1.47-6.91-.79-7.42,1.48-.24-.64-1.68-2.28-1.98-2.97s-2.5-5.3-2.23-5.44c9.92-.63,7.99-.31,11.62,6.92Z" style="fill:#f8e1d4;"/><path d="M714.88,358.19c-1.8-3.16-6.47-3.86-8.9-.99-.37-1.93-1.72-5.45-2.47-7.42.51-2.28,5.36-.01,7.42-1.48,1.61,3.22,3.34,6.27,3.96,9.89Z" style="fill:#fefdfe;"/><path d="M656.02,367.58c-2.28.62-4.77,6.28-8.9-1.48.21-.56.43-3.15.49-3.96.01-.16-.01-.33,0-.49l8.16.49.25,5.44Z" style="fill:#e5d7b5;"/><path d="M714.88,358.19c1.31,2.3.56,2.15.99,3.96-3.13.02-6.27-.02-9.4,0,0-1.35-.24-3.64-.49-4.95,2.43-2.87,7.1-2.17,8.9.99Z" style="fill:#f8e1d4;"/><path d="M656.52,346.81c.1-1.64.83-3.22.49-4.95,2.54.12,5.12-.09,7.67,0,1,.35.1,5.78,0,6.92-3.4-.14-5.83.92-8.16-1.98Z" style="fill:#da2b7c;"/><path d="M673.83,341.37l.25,6.43h-7.67c.08-1.27-.52-5.87.74-6.43.31-.14,6.35-.11,6.68,0Z" style="fill:#f8e1d4;"/><path d="M655.53,341.37c1.38,7.01-1.06,7.45-7.42,5.94.16-.95.13-5.5.74-5.94,2.23,0,4.46-.01,6.68,0Z" style="fill:#f8e1d4;"/><path d="M715.87,341.86c3.18,6.84,8.43,12.39,10.39,19.79-.32.03-.68-.06-.99,0-1.93-7.26-8.78-12.09-10.39-19.54l.99-.25Z" style="fill:#6b1c66;"/><path d="M706.48,362.64c-.07,1.58.21,2.37-.49,3.96-3.29,7.4-8.88.6-9.89.49-.18-2.6.25-5.33,0-7.91,1.89-.2.45,2.44,1.24,2.97s7.47-.65,9.15.49Z" style="fill:#99104a;"/><path d="M627.83,362.14c.05,1.16-.23,3.02,0,3.96-1.68,4.22-8.98,5.12-10.39.99-.23-.69-.01-3.85,0-4.95,3.46-.01,6.93,0,10.39,0Z" style="fill:#99104a;"/><path d="M686.69,362.14c.16,1.21-.24,2.87,0,3.96-2.62,4.25-7.2,4.85-10.39.99.36-1-.26-3.67,0-4.95,3.45,0,6.94-.08,10.39,0Z" style="fill:#99104a;"/><path d="M617.44,362.14c-.01,1.1-.23,4.26,0,4.95-1.03.7-2.39,1.87-2.97,2.97-2.59.27-5.59-.22-6.43-2.97-.22-.73-.02-3.4,0-4.45,2.8-1.05,6.39-.48,9.4-.49Z" style="fill:#d7979a;"/><path d="M675.81,362.14c.16,0,.33,0,.49,0-.26,1.27.36,3.95,0,4.95-1.19,3.3-7.92,3.25-9.89,0,.36-.78.42-3.89.49-4.95,2.96-.01,5.96,0,8.9,0Z" style="fill:#daa59e;"/><path d="M715.87,362.14c.28,1.19-.32,3.36,0,4.45-3.22,5.89-5.28,3.35-8.9.49-.1-.08-.04-.8-.99-.49.71-1.59.43-2.38.49-3.96,0-.16,0-.33,0-.49,3.13-.02,6.27.02,9.4,0Z" style="fill:#d7979a;"/><path d="M696.09,359.18c.25,2.58-.18,5.31,0,7.91-.25-.03-.63.31-.99.49l.25-5.44c-.35-.25-7.31.03-8.66,0-.18-1.39.21-3.09,0-4.45,6.63-4.47,8.7,1.42,6.92-8.41.97,3.18,2.15,6.57,2.47,9.89Z" style="fill:#fcf6ea;"/><path d="M695.1,367.58c-.13.07-1.21,1.77-1.73,1.98-3.13,1.24-5.96-.19-6.68-3.46-.24-1.08.16-2.75,0-3.96,1.35.03,8.3-.25,8.66,0l-.25,5.44Z" style="fill:#d4bd9a;"/><path d="M636.73,367.09c-2.8,4.19-7.75,3.82-8.9-.99-.23-.94.05-2.8,0-3.96,0-.16,0-.33,0-.49l8.16.49.74,4.95Z" style="fill:#e1e4b8;"/><path d="M614.47,370.06c-.59,1.12.49,3.89-2.23,4.45-4.96,1.03-5.92-3.26-7.67-4.45l3.46-2.97c.84,2.75,3.84,3.24,6.43,2.97Z" style="fill:#9e2e20;"/><path d="M693.61,348.79c.04.16-.03.33,0,.49,1.77,9.83-.3,3.94-6.92,8.41-.41-2.65-.94-5.79-1.48-8.41l8.41-.49Z" style="fill:#fefdfe;"/><path d="M623.38,382.92c.29.95.32,1.33,1.24,1.98l25.72-1.48.49,1.48c1.68.66,5.3-1.48,5.19.49-17.13.13-34.33-.51-51.44.49-7.42,0-14.85-.05-22.26,0-2.19.02-14.19-1.18-15.33.25-.97,8.27-.4,16.68-.49,24.98h-1.48c-.05-9.11-.97-18.3-.49-27.45.56-1.26,5.61-.67,6.92-.74,4.09-.21,8.27.16,12.37,0,0,.51-.2,1.68.25,1.98,4.08-.65,30.67.86,32.15-.99.48-.6.02-1.63.74-2.97-.75,3.68,4.27,2.64,6.43,1.98Z" style="fill:#151420;"/><path d="M722.3,379.46c-.01.16,0,.33,0,.49-.06.98.04,1.99,0,2.97-.32,7.87.09,15.86,0,23.74-.04,3.63.5,7.36.49,10.88,0,.17,0,.33,0,.49,0,5.61-.03,11.2,0,16.82,0,.66,0,1.32,0,1.98,0,1.52-.51,3.63-.49,5.44,0,.33,0,.66,0,.99-1.48-.22-.96,1.32-.99,2.23-.16,5.48.67,12.65,0,17.81-.14,1.07-.05,1.81-1.48,1.73-.44-.14-1.22-.45-1.48-.49-.32-1.63.43-10.53,0-11.13-1.26-1.77-9.18,3.42-7.91-6.68,2.46-.09,5.11-.95,7.67-.49.82-.39.58-1.13.74-1.48.46-.99.87-3.55.99-4.7,1.64-15.5,0-36.99,0-53.17v-7.42c.35.03,1.75-.43,2.47,0Z" style="fill:#ffc449;"/><path d="M706.48,378.96c-3.02,6.18,10.14,2.47,13.36,3.46v2.97h-11.38c-15.97,0-32.03-.41-47.98.49-1.48,0-2.97,0-4.45,0v-.49c.76,0,.36-.99.74-.99.15,0-.3.52,2.23.49,15.57-.16,31.17.12,46.74,0,1.51-3.05-.56-1.41-1.24-2.23-.15-.18,1.89-3.31.99-4.7,1.55.07.92.99.99.99Z" style="fill:#151420;"/><path d="M758.41,380.44c2.74.17,5.62.69,8.41.74l.49,84.83c-.33,0-.66,0-.99,0-14.99.37-30.02-.55-45.01.49-.94-.29-1.38-1.45-1.48-1.48,1.43.08,1.35-.66,1.48-1.73.67-5.16-.16-12.32,0-17.81.03-.9-.5-2.44.99-2.23.05,7.16-.04,14.35,0,21.52l19.04.25c1.24-.8.06-1.04.25-1.98,1.07-5.4.4-12.67.49-18.3.03-1.81,0-3.63,0-5.44,0-.66,0-1.32,0-1.98,0-.99,0-1.97,0-2.97,0-3.62.3-7.85,0-11.38,1.35-.79,1.3-.9,1.48.74.51,4.44,0,10.06,0,13.36.02,9.12-.42,18.4.49,27.45,1.44.9,9.63.56,11.87.49,1.18-.03,7.56.25,7.91-.25.06-9.31-.08-18.64,0-27.95,0-1.15,0-2.32,0-3.46.03-5.1.02-10.23,0-15.33,0-.33,0-.66,0-.99s0-.66,0-.99c-.02-3.13.03-6.27,0-9.4-.05-6.07.24-12.24,0-18.3-.06-1.4-.33-3.51.49-4.7-.57-1.67-4.08-.32-4.95-.25l-14.59-.49c-1.2.53-.72,4.71-.74,5.94h-1.48c-.08-1.61-.76-4.11-.74-5.94h-19.54c.04-.98-.06-1.99,0-2.97,11.93,1.44,24.17-.23,36.11.49Z" style="fill:#fefdfe;"/><path d="M763.85,436.83c-.08,9.31.06,18.63,0,27.95-.35.5-6.73.21-7.91.25-1.17-2.33-9.52-.2-10.63-.99-.5-.36-.2-4.94-.25-5.94,4.47-5.65,5.8-13.63,8.9-19.79.07-.14,1.35.64.49-1.48,3.14-.01,6.26.21,9.4,0Z" style="fill:#0d626d;"/><path d="M763.85,388.36c.24,6.06-.05,12.23,0,18.3l-5.44,9.15,5.44.25c0,.33,0,.66,0,.99-6.08-.21-12.19,0-18.3,0v-.49l16.32-28.19h1.98Z" style="fill:#0d626d;"/><path d="M742.58,388.85c.08,1.69-.53,4.41-.49,6.43-3.89-.31-6.89-.92-10.88-.99-1.41-.02-4.83-1.17-5.94-.25-1.88,1.57.69,11.85-2.97,12.61.09-7.88-.32-15.88,0-23.74h19.54c-.02,1.83.66,4.33.74,5.94Z" style="fill:#071a2b;"/><path d="M738.63,440.3l-13.85,23c.16,1.22,4.41.78,5.44.74,3.86-.13,7.44-1.51,11.38-.99-.18.93,1,1.18-.25,1.98l-19.04-.25c-.04-7.17.05-14.35,0-21.52,0-.33,0-.66,0-.99,1.04-.2-.06-1.64.99-1.98-.4,19.65,2.86,8.86,8.41,0,2.67-.2,5.01.12,6.92,0Z" style="fill:#012b36;"/><path d="M763.85,418.04c.02,5.1.03,10.23,0,15.33.22,1.48-1.32.96-2.23.99-4.07.12-9.12.3-13.11,0l8.41-15.83v-.49h6.92Z" style="fill:#0d626d;"/><path d="M744.07,388.85c-.13,9.26.39,18.85.49,28.19,0,.33,0,.66,0,.99.07,5.35-.05,10.72,0,16.08.37.52,2.7.17,3.46.25.16.02.33-.01.49,0,3.99.3,9.04.12,13.11,0,.9-.03,2.44.5,2.23-.99,0,1.14,0,2.31,0,3.46-3.14.21-6.26-.01-9.4,0-1.4,0-9.56-.23-9.89.25l-.49,27.45c-.92-9.06-.48-18.33-.49-27.45,0-3.3.51-8.91,0-13.36-.19-1.64-.13-1.53-1.48-.74-.06-.73-.16-.88-.49-1.48.8-2.32-.08-2.86,0-3.46.1-.74-.03-.67,0-.99.45-5.51.54-10.8.49-16.32,0-.98.01-1.98,0-2.97-.01-.82.02-1.65,0-2.47-.04-2.02.58-4.74.49-6.43h1.48Z" style="fill:#fcf6ea;"/><path d="M742.09,444.75c-.1,5.63.57,12.9-.49,18.3-3.94-.52-7.52.86-11.38.99l11.87-19.29Z" style="fill:#094a55;"/><path d="M742.09,439.31c0,1.81.03,3.64,0,5.44l-11.87,19.29c-1.03.03-5.29.48-5.44-.74l13.85-23c.77-.05,2.11-1.55,3.46-.99Z" style="fill:#012b36;"/><path d="M759.4,383.41c-1.76.14-5.77.02-7.17.49-1.59.53-1.92,4.06-2.23,4.45-1.04,1.33-4.56,4.46-4.95,6.18-1.17,5.21.49,16.28.49,22.01v.49h-.99c-.1-9.34-.63-18.93-.49-28.19.02-1.23-.46-5.4.74-5.94l14.59.49Z" style="fill:#071a2b;"/><path d="M763.85,388.36h-1.98c-3.94,0-8,.69-11.87,0,.31-.4.63-3.92,2.23-4.45,1.41-.47,5.41-.36,7.17-.49.86-.07,4.38-1.42,4.95.25-.82,1.19-.55,3.3-.49,4.7Z" style="fill:#012b36;"/><path d="M742.09,422.98c.3,3.52,0,7.75,0,11.38h-7.91c.04-.32-.07-.73,0-.99.72-2.57,6.25-8.49,7.42-11.87.33.6.43.75.49,1.48Z" style="fill:#0d626d;"/><path d="M734.17,434.36h7.91c0,.99,0,1.98,0,2.97l-19.29-.49c0-.66,0-1.32,0-1.98.44.03.5-.44.99-.49,3.1-.33,7.16,0,10.39,0Z" style="fill:#fcf6ea;"/><path d="M742.09,437.33c0,.66,0,1.32,0,1.98-1.35-.56-2.69.94-3.46.99-1.92.12-4.25-.2-6.92,0-2.04.15-7.01-.45-8.41,0-1.05.34.06,1.77-.99,1.98-.02-1.81.5-3.92.49-5.44l19.29.49Z" style="fill:#071a2b;"/><path d="M754.45,436.83c.85,2.12-.42,1.34-.49,1.48-11.63-2.1-9.27,11.56-8.9,19.79.05,1-.25,5.58.25,5.94,1.11.79,9.46-1.34,10.63.99-2.24.06-10.43.4-11.87-.49l.49-27.45c.34-.48,8.49-.24,9.89-.25Z" style="fill:#012b36;"/><path d="M763.85,416.06l-5.44-.25,5.44-9.15c.03,3.13-.02,6.27,0,9.4Z" style="fill:#17787d;"/><path d="M763.85,417.05c0,.33,0,.66,0,.99h-19.29c0-.33,0-.66,0-.99h.99c6.11,0,12.22-.21,18.3,0Z" style="fill:#b0dad3;"/><path d="M731.21,394.29c-2.91,5.46-7.47,12.25-7.91,18.55-.34,4.92.03,3.02,3.96,4.2-1.48.02-3.09-.32-4.45.49,0-3.53-.53-7.26-.49-10.88,3.66-.77,1.08-11.04,2.97-12.61,1.11-.93,4.53.22,5.94.25Z" style="fill:#071a2b;"/><path d="M730.71,418.04c-2.44,4.96-8.91,10.61-6.92,16.32-.49.05-.55.52-.99.49-.03-5.62,0-11.21,0-16.82h7.91Z" style="fill:#012b36;"/><path d="M727.25,417.05c4.11-.06,8.25,0,12.37,0h1.98c-.03.32.1.25,0,.99h-18.8c0-.17,0-.33,0-.49,1.37-.81,2.97-.47,4.45-.49Z" style="fill:#abd0de;"/><path d="M753.96,438.32c-3.11,6.15-4.43,14.14-8.9,19.79-.37-8.22-2.73-21.89,8.9-19.79Z" style="fill:#094a55;"/><path d="M761.87,388.36l-16.32,28.19c0-5.73-1.67-16.8-.49-22.01.39-1.72,3.91-4.85,4.95-6.18,3.87.69,7.93,0,11.87,0Z" style="fill:#094a55;"/><path d="M742.09,395.28c.02.82-.01,1.65,0,2.47l-16.82,18.05c.41.54,5.74.16,6.92.25,2.35.17,5.09.49,7.42.99-4.11,0-8.25-.06-12.37,0-3.92-1.18-4.3.71-3.96-4.2.44-6.3,5-13.09,7.91-18.55,4,.07,6.99.68,10.88.99Z" style="fill:#012b36;"/><path d="M731.7,440.3c-5.55,8.86-8.81,19.65-8.41,0,1.4-.45,6.36.15,8.41,0Z" style="fill:#071a2b;"/><path d="M756.93,418.53l-8.41,15.83c-.16-.01-.33.02-.49,0-3.34-1.52-3.61-2.11-2.97-6.18.86-5.45,5.66-11.97,11.87-9.65Z" style="fill:#094a55;"/><path d="M756.93,418.04v.49c-6.21-2.33-11.01,4.19-11.87,9.65-.64,4.07-.37,4.66,2.97,6.18-.77-.08-3.1.27-3.46-.25-.05-5.36.07-10.73,0-16.08h12.37Z" style="fill:#033349;"/><path d="M741.59,418.04c-.08.61.8,1.14,0,3.46-1.17,3.38-6.7,9.3-7.42,11.87l-8.9-.25c3.95-5,6.51-11.73,11.87-15.09h4.45Z" style="fill:#094a55;"/><path d="M742.09,400.72c.05,5.52-.04,10.82-.49,16.32h-1.98c-2.33-.5-5.06-.82-7.42-.99l9.89-15.33Z" style="fill:#0d626d;"/><path d="M742.09,397.76c.01.98,0,1.98,0,2.97l-9.89,15.33c-1.19-.08-6.52.29-6.92-.25l16.82-18.05Z" style="fill:#094a55;"/><path d="M737.14,418.04c-5.36,3.36-7.92,10.09-11.87,15.09l8.9.25c-.07.26.04.67,0,.99-3.23,0-7.29-.33-10.39,0-1.98-5.72,4.48-11.36,6.92-16.32h6.43Z" style="fill:#012b36;"/><path d="M566.49,411.11c-.04,3.71-.77,32.47.74,33.14,20.38.12,40.72-.51,61.09-.49v.99c0,.16.02.34,0,.49l-63.31-.49c.57-10.8.06-22.72,0-33.64h1.48Z" style="fill:#20152a;"/><path d="M582.32,385.89l.49,1.98c-.16.06-.38-.07-.49,0l-.49.49-12.37.74c-.77,2.49.51,8.9.49,11.62-.05,9.52-.45,19.18-.49,28.69-.01,2.42-.17,5.03,0,7.42.08,1.11-.46,3.92.74,4.45,4.04.06,8.09-.08,12.12,0,.33,0,.66,0,.99,0,.16,0,.33,0,.49,0,7.32.11,14.71.04,22.01,0,1.11-1.41-.29-9.36-.25-11.38,0-.33,0-.66,0-.99.16-8.52.14-16.71,0-25.23-.08-4.9-.19-9.95,0-14.84.02-.47.48-.52.49-.99.03-.93-.6-1.12-.49-1.98.35,0,1.3.5,2.47.49.04.32-.07.74,0,.99.31,1.04.44,1.22.49,2.47.1,2.12-.02,4.3,0,6.43.13,14.92-.37,29.86.49,44.76,5.42.5,10.89.18,16.32.25,12.18.15,24.42.09,36.6-.25.79-16.78-1.06-34.53,0-51.19.07-1.11.34-1.3.49-1.98.1-.45-.06-1.01,0-1.48.66,0,1.32,0,1.98,0v18.8c0,7.3-1.38,28.87,0,34.38.25,1.01.43,1.42,1.48,1.73.95.28,18.92.47,19.79,0,2.59-10.8,1.4-21.75,1.48-32.65.01-1.4.49-3.56.49-5.44h.99c-.01,9.31,0,18.63,0,27.95l1.48,10.14,15.83-.25c.02-12.61-.03-25.23,0-37.84,0-1.31,0-2.64,0-3.96.01-3.07-.54-9.3,0-11.87.01-.05.76.03.49-.99.66.02,1.67-.35,1.98-.99h11.38v1.48l-2.97,1.98c-.39-2.64-.24-.76-.99-.99-1.9-.58-7.63-1.27-8.41.74l.49,52.43,5.44.25c.63.06,1.35.03,1.98,0,2.71-.12,4.11-2.77,3.22,1.98l-67.02.49c-7.74-.02-15.51,0-23.25,0-20.37-.01-40.71.62-61.09.49-1.51-.67-.78-29.43-.74-33.14.09-8.3-.47-16.71.49-24.98,1.14-1.43,13.15-.23,15.33-.25Z" style="fill:#e4f5f4;"/><path d="M604.58,385.89c.33,0,.66,0,.99,0-.11.86.53,1.05.49,1.98-5.78-.06-18.15-1.8-23.25,0l-.49-1.98c7.41-.05,14.84,0,22.26,0Z" style="fill:#c687ad;"/><path d="M656.02,385.39v.49c-16,.02-32.04.49-47.98.49-1.17,0-2.13-.49-2.47-.49-.33,0-.66,0-.99,0,17.11-1,34.31-.37,51.44-.49Z" style="fill:#641627;"/><path d="M719.83,386.87c0,16.18,1.64,37.68,0,53.17-.12,1.15-.53,3.7-.99,4.7-22.23-.63-44.53-.93-66.78-.99-.16,0-.33,0-.49,0l67.02-.49c.89-4.74-.5-2.1-3.22-1.98-1.07-9.09.77-20.19-.49-29.18-.13-5.43.17-10.9,0-16.32-.08-2.38.05-4.78,0-7.17-.21-.3-4.94-.43-5.44-.25-2.08.77.41,36.03-.49,40.56-.05,1.58-.35,11.62,0,12.12.38.53,3.57.16,4.45.25l-5.44-.25-.49-52.43c.78-2.02,6.51-1.32,8.41-.74l.49,39.82c1.25.74.86-.28.99-.99,1.05-5.8.42-31.62-.49-37.84l2.97-1.98Z" style="fill:#e1e4b8;"/><path d="M605.08,403.2s-.08.58.49.49c.14,8.52.16,16.7,0,25.23-3.87,3.46-8.5,5.24-8.9,11.13l1.48-3.46,7.42-6.68c-.04,2.02,1.36,9.97.25,11.38-7.31.04-14.69.11-22.01,0-.09-6.25.12-12.54,0-18.8,4.14-4.14,8.64-6.94,12.86-11.13,1.02-1.01,2.56-4.25,3.46-5.19,1.06-1.1,3.24-3.17,4.95-2.97Z" style="fill:#42a4ae;"/><path d="M625.36,441.28v-.99c5.33-.68,12.58,1.73,16.82-1.98,2.21.16,4.31-.23,6.43-.74-3.69-2.34-2.29-3.08-2.47-6.68-.09-1.75.18-3.42,0-4.95-.44-3.6.59-2.56-1.98-5.44.26-1.86-2.32-1.99-1.98-3.71.23-1.18,14.63-14.06,16.82-17.06.52-.71,1.61-.35,1.98-1.73.61-2.31-.82-5.8.49-8.16h.49c-1.06,16.66.79,34.41,0,51.19-12.18.34-24.42.4-36.6.25Z" style="fill:url(#Sfumatura_senza_nome_90);"/><path d="M705.98,403.2c-.03,12.61.02,25.23,0,37.84l-15.83.25c-.76-.48-.49-10.6-.49-12.37l16.32-25.72Z" style="fill:#589dad;"/><path d="M682.24,399.24c1.81-.01,3.63,0,5.44,0-.02,1.31,0,2.64,0,3.96,0,1.88-.48,4.04-.49,5.44-3.98,7.66-12.4,15.02-16.32,22.26l-5.44,1.48c.18-4.62.29-10.9.99-15.33,1.13-7.12,2.08-4.25,6.18-8.41,2.73-2.77,5.79-5.41,7.67-8.9.31,0,.87-.49,1.98-.49Z" style="fill:#0d626d;"/><path d="M685.7,441.28l-17.56-.49c-1.6-.64,1.89-8.36,2.72-9.89,3.93-7.24,12.34-14.6,16.32-22.26-.08,10.89,1.1,21.85-1.48,32.65Z" style="fill:#11778c;"/><path d="M605.57,388.85c-.19,4.89-.08,9.94,0,14.84-.57.09-.46-.49-.49-.49,2.01-3.83-5.84-4.87-8.66-4.95-4.53-.13-8.35.69-11.13,3.96-.14.16-1.66-.3-1.98.25-.78,1.33.44,17.18.49,20.03.12,6.25-.09,12.54,0,18.8-.16,0-.33,0-.49,0-.93-5.88-.38-11.89-.49-17.81-.21-11.22-.49-22.4-.49-33.64,7.81,0,15.5-.06,23.25-.99Z" style="fill:#01191c;"/><path d="M688.67,387.37c.52,1.09.02,1.57,0,2.47-1.55-.28-.95,2.15-.99,3.46-2.56-.25-4.1,4.2-5.44,5.94-1.11,0-1.66.49-1.98.49-4.26,0-8.77-1.02-13.11-.49-.89.82-.51,2.3-.74,2.97l-1.98,2.97v-17.81c8.04.32,16.17,0,24.24,0Z" style="fill:#01191c;"/><path d="M581.83,418.04c.05,1.8,0,3.64,0,5.44v4.95c-.05-.44-.77-2.11-.74-2.97l-11.62,11.38c-.17-2.39-.01-5,0-7.42,1.48.22.96-1.32.99-2.23.08-2.75-.5-14.11.25-15.58.29-.56,8.96-5.92,9.89-7.91.53.41.19,10.44.25,12.12.03.9-.5,2.44.99,2.23Z" style="fill:#17787d;"/><path d="M705.98,399.24c0,1.31,0,2.64,0,3.96l-16.32,25.72c0-9.68.36-19.48.49-29.18.91-.63,1.93-.58,2.97-.49,2.4.19,1.59-.4,3.22-.49,3.08-.17,6.63-.2,9.65.49Z" style="fill:#17787d;"/><path d="M625.36,389.35c-.12,2.15,0,6.4,0,8.9-5.61-.89-7.51,1.02-10.39,5.44-.32,0-.67-.03-.99,0-3.46-1.78-4.4-3.78-5.44-7.42-.02-2.13.1-4.31,0-6.43,5.64.03,11.18-.53,16.82-.49Z" style="fill:#01191c;"/><path d="M714.88,412.1c1.27,9-.57,20.09.49,29.18-.63.03-1.35.06-1.98,0-.88-.09-4.08.28-4.45-.25-.35-.49-.05-10.54,0-12.12.25-7.6,1.39-12.36,4.95-19.04.37-.17.97,2.11.99,2.23Z" style="fill:#053d4b;"/><path d="M581.83,388.36c.24.71-.4.95-.49,1.48-.48,2.68.03,7.84,0,10.88-1.98-2.47-9.37-2.88-11.38,0,.01-2.73-1.27-9.13-.49-11.62l12.37-.74Z" style="fill:#01191c;"/><path d="M581.83,428.42c.47,3.93.21,8.83.49,12.86-4.03-.08-8.08.06-12.12,0-1.2-.53-.66-3.35-.74-4.45l11.62-11.38c-.03.86.69,2.52.74,2.97Z" style="fill:#42a4ae;"/><path d="M581.33,400.72c-.05,5.81.34,11.52.49,17.31-1.49.22-.96-1.32-.99-2.23-.06-1.68.28-11.71-.25-12.12-.93,2-9.61,7.35-9.89,7.91-.75,1.47-.17,12.83-.25,15.58-.03.9.5,2.44-.99,2.23.04-9.51.45-19.17.49-28.69,2.01-2.88,9.39-2.47,11.38,0Z" style="fill:#094a55;"/><path d="M705.98,387.37c-.54,2.57.01,8.8,0,11.87-3.01-.69-6.57-.67-9.65-.49-1.62.09-.81.69-3.22.49,4.84-1.16,5.39-5.85,4.95-9.89.3-.06,2.81-1.07,2.47-1.98h5.44Z" style="fill:#012b36;"/><path d="M700.54,387.37c.33.91-2.18,1.92-2.47,1.98-1.31.26-7.39,0-7.91.74-.42,3.18.04,6.51,0,9.65-.13,9.7-.5,19.51-.49,29.18,0,1.77-.26,11.89.49,12.37l-1.48-10.14c0-9.31-.01-18.64,0-27.95,0-4.44-.09-8.92,0-13.36.02-.9.52-1.38,0-2.47h11.87Z" style="fill:#151420;"/><path d="M656.02,385.89c1.48,0,2.97,0,4.45,0,1.26,0,1.88.49,1.98.49-.06.47.1,1.03,0,1.48-11.88-.46-23.75-.43-35.61-.49-6.26-.03-12.54.02-18.8,0-.07-.25.04-.67,0-.99,15.94,0,31.98-.48,47.98-.49Z" style="fill:#c687ad;"/><path d="M662.45,387.86c-.15.68-.42.87-.49,1.98h-.49c-12.03.47-24.11-.43-36.11-.49.09-1.54.85-1.11,1.48-1.98,11.86.06,23.74.04,35.61.49Z" style="fill:#20152a;"/><path d="M706.48,386.38c.27,1.02-.48.94-.49.99h-17.31c-8.07,0-16.19.32-24.24,0v-.99c14.07,0,27.92-.43,42.04,0Z" style="fill:#c687ad;"/><path d="M613.98,403.69c-.25.02-4.35,2-4.45,2.23-.53,1.23-.09,23.26,0,26.71.01.6.97-.6.99,0,.03.87-2.01,5.74-.99,7.91l15.83.25v.49c-5.43-.07-10.9.25-16.32-.25-.86-14.9-.37-29.85-.49-44.76,1.04,3.64,1.98,5.64,5.44,7.42Z" style="fill:#012b36;"/><path d="M606.06,387.86c-.02.47-.48.52-.49.99-7.74.93-15.43.99-23.25.99v-1.98c.11-.07.34.06.49,0,5.1-1.8,17.47-.06,23.25,0Z" style="fill:#62053b;"/><path d="M666.41,402.21c-1.33,3.93-1.77,11.08,0,14.84-.7,4.43-.81,10.71-.99,15.33-.11,2.8-.3,6.21.49,8.9-1.05-.31-1.23-.72-1.48-1.73-1.38-5.51,0-27.07,0-34.38l1.98-2.97Z" style="fill:#151420;"/><path d="M716.86,388.85c.92,6.22,1.55,32.04.49,37.84-.13.71.27,1.73-.99.99l-.49-39.82c.75.23.6-1.65.99.99Z" style="fill:#fee384;"/><path d="M670.86,430.9c-.83,1.54-4.32,9.25-2.72,9.89l17.56.49c-.87.47-18.84.28-19.79,0-.8-2.7-.6-6.1-.49-8.9l5.44-1.48Z" style="fill:#054d64;"/><path d="M626.84,387.37c-.64.87-1.4.44-1.48,1.98-5.64-.03-11.18.53-16.82.49-.06-1.25-.19-1.44-.49-2.47,6.26.02,12.54-.03,18.8,0Z" style="fill:#382241;"/><path d="M708.45,385.39c-.31.64-1.32,1.01-1.98.99-14.12-.43-27.98,0-42.04,0-.66,0-1.32,0-1.98,0-.1,0-.72-.5-1.98-.49,15.95-.91,32-.49,47.98-.49Z" style="fill:#62053b;"/><path d="M582.82,423.48c.11,5.92-.44,11.93.49,17.81-.33,0-.66,0-.99,0-.28-4.03-.02-8.93-.49-12.86v-4.95h.99Z" style="fill:#cae3d4;"/><path d="M688.67,389.84c-.09,4.44,0,8.91,0,13.36h-.99c0-1.31-.02-2.64,0-3.96.02-1.97-.06-3.97,0-5.94.04-1.31-.56-3.74.99-3.46Z" style="fill:#95b958;"/><path d="M605.57,429.91l-7.42,6.68-1.48,3.46c.4-5.89,5.03-7.67,8.9-11.13,0,.33,0,.66,0,.99Z" style="fill:#17787d;"/><path d="M582.32,389.84h-.99c.1-.54.73-.77.49-1.48l.49-.49v1.98Z" style="fill:#ba9996;"/><path d="M709.44,388.36c-.04,5.17-1.29,17.1,5.44,7.42.17,5.42-.13,10.9,0,16.32-.02-.12-.62-2.4-.99-2.23-3.55,6.69-4.69,11.44-4.95,19.04.91-4.53-1.59-39.79.49-40.56Z" style="fill:#033349;"/><path d="M714.88,395.78c-6.73,9.68-5.48-2.25-5.44-7.42.5-.19,5.23-.05,5.44.25.05,2.39-.08,4.79,0,7.17Z" style="fill:#071a2b;"/><path d="M585.29,402.21c4.6,3.29,9.26,4.43,14.84,3.96-.9.94-2.44,4.18-3.46,5.19-4.22,4.19-8.72,6.99-12.86,11.13-.06-2.85-1.27-18.7-.49-20.03.32-.54,1.84-.09,1.98-.25Z" style="fill:#17787d;"/><path d="M605.08,403.2c-1.7-.21-3.89,1.86-4.95,2.97-5.58.47-10.23-.67-14.84-3.96,2.78-3.27,6.59-4.08,11.13-3.96,2.81.08,10.66,1.11,8.66,4.95Z" style="fill:#094a55;"/><path d="M625.85,420.02c0,.16,0,.33,0,.49-1.24,1.56-1.49,7.24-1.48,9.15,0,.44.35,5.32,1.48,5.19-.07,1.87-.49,3.41-.49,5.44v.49l-15.83-.25c-1.02-2.17,1.02-7.05.99-7.91-.02-.6-.97.6-.99,0-.09-3.45-.53-25.48,0-26.71.1-.23,4.2-2.2,4.45-2.23.32-.03.67,0,.99,0,4.25.12,4.36,2.99,10.39-.49.9,5.51.49,11.25.49,16.82Z" style="fill:#0d626d;"/><path d="M658.99,399.74c-2.18,3.01-16.59,15.89-16.82,17.06-.34,1.72,2.23,1.85,1.98,3.71-1.45-1.63-3.73-3.85-5.44-1.24,3.63,3.37-.43,4.37,0,8.66.3,2.92,3.66,5.11.49,9.65.77,1.14,1.89.66,2.97.74-4.24,3.71-11.48,1.3-16.82,1.98,0-2.03.42-3.58.49-5.44.19-4.75-.01-9.59,0-14.34,0-.16,0-.33,0-.49l19.29-20.28c4.6-.08,9.28-.98,13.85,0Z" style="fill:#01191c;"/><path d="M661.46,389.84c-1.31,2.37.12,5.85-.49,8.16-.37,1.38-1.46,1.02-1.98,1.73-4.57-.98-9.25-.08-13.85,0-2.64.05-15.38-.49-16.57,0-.38.16-.53,1.3-2.72,2.47.5-1.21-.5-3.27-.49-3.96,0-2.51-.12-6.75,0-8.9,12,.07,24.08.97,36.11.49Z"/><path d="M644.15,426.45c-5.68,2.06-2.67,4.89,1.98,4.45.19,3.59-1.21,4.34,2.47,6.68-2.12.51-4.22.9-6.43.74-1.08-.08-2.19.4-2.97-.74,3.17-4.53-.2-6.72-.49-9.65,1.76-.07,3.89-2.91,5.44-1.48Z" style="fill:#e1e4b8;"/><path d="M644.15,420.51c2.57,2.88,1.54,1.84,1.98,5.44-.92-.24-1.31.25-1.98.49-1.55-1.43-3.68,1.42-5.44,1.48-.43-4.29,3.63-5.29,0-8.66,1.71-2.61,3.99-.39,5.44,1.24Z" style="fill:#fcf6ea;"/><path d="M646.13,425.95c.18,1.52-.09,3.19,0,4.95-4.65.44-7.66-2.39-1.98-4.45.67-.24,1.05-.74,1.98-.49Z" style="fill:#e5e067;"/><path d="M680.26,399.74c-1.87,3.5-4.94,6.13-7.67,8.9-4.1,4.16-5.06,1.28-6.18,8.41-1.77-3.76-1.33-10.91,0-14.84.23-.67-.15-2.14.74-2.97,4.33-.52,8.85.49,13.11.49Z" style="fill:#094a55;"/><path d="M687.68,393.3c-.06,1.97.02,3.97,0,5.94-1.81,0-3.63-.01-5.44,0,1.34-1.74,2.88-6.19,5.44-5.94Z" style="fill:#012b36;"/><path d="M582.32,389.84c0,11.23.28,22.42.49,33.64h-.99c0-1.8.05-3.64,0-5.44-.15-5.79-.54-11.5-.49-17.31.03-3.04-.48-8.2,0-10.88h.99Z" style="fill:#d6ea82;"/><path d="M698.07,389.35c.45,4.04-.11,8.74-4.95,9.89-1.04-.08-2.06-.13-2.97.49.04-3.14-.42-6.46,0-9.65.53-.75,6.6-.48,7.91-.74Z" style="fill:#012b36;"/><path d="M625.36,398.25c0,.69,1,2.75.49,3.96-.08.04.32.52-.49.99-6.03,3.48-6.13.61-10.39.49,2.88-4.42,4.78-6.33,10.39-5.44Z" style="fill:#012b36;"/><path d="M645.14,399.74l-19.29,20.28c0-5.56.41-11.31-.49-16.82.82-.47.42-.95.49-.99,2.19-1.17,2.34-2.32,2.72-2.47,1.19-.49,13.93.05,16.57,0Z" style="fill:#01191c;"/><path d="M625.85,420.51c-.01,4.76.19,9.6,0,14.34-1.13.13-1.48-4.75-1.48-5.19,0-1.91.24-7.59,1.48-9.15Z" style="fill:#17787d;"/><rect x="391.65" y="227.54" width="123.74" height="12.06" style="fill:none;"/><polygon points="735.26 335.32 595.44 334.93 595.58 316.62 735.4 317 735.26 335.32" style="fill:none;"/><path d="M608.76,319.83h2.58l.49,12.28h-2.52l-.27-8.37-4.5,8.37h-1.24l-2.07-8.57-2.79,8.57h-2.58l4.05-12.28h2.65l1.92,8.02,4.28-8.02Z" style="fill:#9e005d; stroke:#000; stroke-miterlimit:10; stroke-width:.25px;"/><path d="M613.6,332.1l1.25-8.69h2.48l-1.24,8.69h-2.49ZM617.58,321.16c0,.33-.11.62-.34.85s-.5.35-.83.35-.6-.12-.84-.35-.36-.52-.36-.85c0-.31.12-.58.35-.82s.52-.35.86-.35c.32,0,.6.12.83.35s.34.51.34.82Z" style="fill:#9e005d; stroke:#000; stroke-miterlimit:10; stroke-width:.25px;"/><path d="M627.07,325.87c0,.17-.02.41-.05.73s-.06.53-.08.66l-.74,4.84h-2.44l.74-4.86c.07-.57.11-.92.11-1.03,0-.31-.07-.55-.21-.71s-.33-.24-.58-.24c-.35,0-.7.12-1.07.37s-.76.62-1.18,1.12l-.79,5.34h-2.45l1.28-8.69h2.44l-.18,1.2c.54-.48,1.04-.83,1.5-1.04s.92-.32,1.37-.32c.74,0,1.32.23,1.72.69s.61,1.1.61,1.92Z" style="fill:#9e005d; stroke:#000; stroke-miterlimit:10; stroke-width:.25px;"/><path d="M628.33,332.1l1.25-8.69h2.48l-1.24,8.69h-2.49ZM632.31,321.16c0,.33-.11.62-.34.85s-.5.35-.83.35-.6-.12-.84-.35-.36-.52-.36-.85c0-.31.12-.58.35-.82s.52-.35.86-.35c.32,0,.6.12.83.35s.34.51.34.82Z" style="fill:#9e005d; stroke:#000; stroke-miterlimit:10; stroke-width:.25px;"/><path d="M645.47,319.83h2.58l.49,12.28h-2.52l-.27-8.37-4.5,8.37h-1.24l-2.07-8.57-2.79,8.57h-2.58l4.05-12.28h2.65l1.92,8.02,4.28-8.02Z" style="fill:#9e005d; stroke:#000; stroke-miterlimit:10; stroke-width:.25px;"/><path d="M659.24,323.5l-1.27,8.6h-2.43l.13-.86c-.36.35-.73.6-1.09.76s-.74.24-1.13.24c-.58,0-1.1-.15-1.55-.45s-.81-.73-1.08-1.3-.4-1.22-.4-1.96c0-.9.2-1.75.6-2.55s1.05-1.47,1.96-1.98,2.07-.77,3.48-.77c.43,0,.91.03,1.45.08s.98.12,1.32.19ZM654.22,330.27c.29,0,.58-.08.89-.24s.58-.36.83-.6l.65-4.31c-.22-.02-.4-.04-.54-.04-.66,0-1.23.17-1.71.51s-.83.78-1.07,1.32-.36,1.09-.36,1.66c0,.52.12.93.35,1.23s.55.46.95.46Z" style="fill:#9e005d; stroke:#000; stroke-miterlimit:10; stroke-width:.25px;"/><path d="M667.35,323.98l-1.17,2.4c-.29-.5-.65-.76-1.1-.76-.32,0-.62.13-.9.4s-.56.65-.84,1.14l-.72,4.93h-2.43l1.28-8.69h2.43l-.21,1.46c.79-1.07,1.52-1.61,2.18-1.61.28,0,.52.06.74.18s.47.3.74.54Z" style="fill:#9e005d; stroke:#000; stroke-miterlimit:10; stroke-width:.25px;"/><path d="M673.65,323.41h2.89l-3.71,4.25,3.46,4.45h-2.78l-3.25-4.21-.62,4.21h-2.45l1.84-12.28h2.42l-1.06,7.29,3.26-3.71Z" style="fill:#9e005d; stroke:#000; stroke-miterlimit:10; stroke-width:.25px;"/><path d="M684.99,327.07c0,.42-.04.79-.11,1.13h-5.49v.33c0,.62.17,1.1.5,1.46s.8.54,1.39.54c.41,0,.86-.07,1.35-.21s1.09-.39,1.8-.77l-.38,2c-.5.26-.98.45-1.44.57s-.96.17-1.49.17c-1.32,0-2.34-.37-3.08-1.1s-1.1-1.74-1.1-3.02c0-.87.19-1.68.58-2.44s.93-1.37,1.62-1.83,1.46-.69,2.32-.69c.66,0,1.25.15,1.79.45s.96.74,1.27,1.31.47,1.27.47,2.07ZM681.41,324.98c-.38,0-.71.15-1.02.45s-.55.76-.75,1.37h2.97v-.12c0-.52-.1-.93-.29-1.24s-.5-.46-.91-.46Z" style="fill:#9e005d; stroke:#000; stroke-miterlimit:10; stroke-width:.25px;"/><path d="M692.59,323.41l-.29,1.85h-2.25l-.54,2.86c-.12.6-.18,1.01-.18,1.23,0,.49.23.74.69.74.25,0,.55-.07.88-.2s.64-.29.9-.47l-.34,2.34c-.63.36-1.38.54-2.27.54-.77,0-1.35-.2-1.76-.59s-.61-.93-.61-1.63c0-.3.05-.76.15-1.35l.61-3.47h-1.58l.29-1.85h1.65l.33-1.73h2.47l-.33,1.73h2.18Z" style="fill:#9e005d; stroke:#000; stroke-miterlimit:10; stroke-width:.25px;"/><path d="M698.42,323.23c.73,0,1.38.16,1.94.49s1,.79,1.31,1.41.47,1.34.47,2.18c0,.94-.2,1.78-.61,2.54s-.99,1.35-1.74,1.79-1.62.65-2.6.65c-.25,0-.47-.01-.67-.04s-.43-.08-.7-.15l-.63,4.09h-2.43l1.44-9.63c-.24.28-.4.47-.48.58-.62.74-.98,1.12-1.1,1.12-.06,0-.11-.03-.15-.08s-.05-.12-.05-.19c0-.33.17-.79.51-1.37s.84-1.16,1.5-1.74l.49-3.19h2.43l-.25,1.75c.39-.12.83-.18,1.33-.18ZM696.73,330.32c.96,0,1.67-.3,2.14-.91s.71-1.32.71-2.15c0-.74-.17-1.31-.52-1.68s-.83-.57-1.45-.57c-.33,0-.59.04-.77.12l-.76,5.12c.18.05.4.07.65.07Z" style="fill:#9e005d; stroke:#000; stroke-miterlimit:10; stroke-width:.25px;"/><path d="M703.24,332.1l1.8-12.28h2.47l-1.78,12.28h-2.49Z" style="fill:#9e005d; stroke:#000; stroke-miterlimit:10; stroke-width:.25px;"/><path d="M716.91,323.5l-1.27,8.6h-2.43l.13-.86c-.36.35-.73.6-1.09.76s-.74.24-1.13.24c-.58,0-1.1-.15-1.55-.45s-.81-.73-1.08-1.3-.4-1.22-.4-1.96c0-.9.2-1.75.6-2.55s1.05-1.47,1.96-1.98,2.07-.77,3.49-.77c.43,0,.91.03,1.45.08s.98.12,1.32.19ZM711.89,330.27c.29,0,.58-.08.89-.24s.58-.36.83-.6l.65-4.31c-.22-.02-.4-.04-.54-.04-.66,0-1.23.17-1.71.51s-.83.78-1.07,1.32-.36,1.09-.36,1.66c0,.52.12.93.35,1.23s.55.46.95.46Z" style="fill:#9e005d; stroke:#000; stroke-miterlimit:10; stroke-width:.25px;"/><path d="M725.8,323.48l-.33,2.27c-.38-.13-.69-.22-.96-.27s-.54-.07-.84-.07c-.69,0-1.27.14-1.75.42s-.84.64-1.07,1.07-.35.87-.35,1.3c0,.56.18,1.02.54,1.38s.88.54,1.55.54c.41,0,.81-.06,1.21-.18s.89-.34,1.47-.65l-.4,2.53c-.43.17-.83.29-1.2.36s-.76.11-1.17.11c-1.55,0-2.69-.38-3.42-1.14s-1.1-1.75-1.1-2.98c0-.77.2-1.54.59-2.3s1.02-1.39,1.86-1.9,1.91-.76,3.18-.76c.77,0,1.49.08,2.18.25Z" style="fill:#9e005d; stroke:#000; stroke-miterlimit:10; stroke-width:.25px;"/><path d="M734.43,327.07c0,.42-.04.79-.11,1.13h-5.49v.33c0,.62.17,1.1.5,1.46s.8.54,1.39.54c.41,0,.86-.07,1.35-.21s1.09-.39,1.8-.77l-.38,2c-.5.26-.98.45-1.44.57s-.96.17-1.49.17c-1.32,0-2.34-.37-3.08-1.1s-1.1-1.74-1.1-3.02c0-.87.19-1.68.58-2.44s.93-1.37,1.62-1.83,1.46-.69,2.32-.69c.66,0,1.25.15,1.79.45s.96.74,1.27,1.31.47,1.27.47,2.07ZM730.86,324.98c-.38,0-.71.15-1.02.45s-.55.76-.75,1.37h2.97v-.12c0-.52-.1-.93-.29-1.24s-.5-.46-.91-.46Z" style="fill:#9e005d; stroke:#000; stroke-miterlimit:10; stroke-width:.25px;"/></svg>